<svg width="1157" height="720" fill="none" xmlns="http://www.w3.org/2000/svg"><g clip-path="url(#a)" fill="#EF6868" stroke="#fff" stroke-width=".343"><path d="m438.289 352.67 1.391 1.114 2.602-.404 1.293-1.211.126 1.685 1.196 2.422-.654 2.047 1.753 1.587.237 1.657 1.335 1.225 1.99-4.414 1.906-1.851.918.028.083-.891 2.741-3.439.348-2.214.863-.724-.696-2.561.39-2.451 1.001-1.559 1.35-7.309 3.047-3.244 3.366-1.949 2.296-.32 4.508 1.531 5.523.265 6.956-1.727 6.316 3.453 4.41.988 6.011-.612 2.726-.975 1.239.627 5.286-2.256 2.352.794 1.488 5.694-.612.78 1.725 2.422 4.786 3.954-1.168 2.84 1.544 3.049-.473 2.339-7.249-.07-.974 1.643 3.479-1.113 3.979.946-.209.682.598-.125.737.989-1.071 3.578.376 1.712-1.99.849-1.822 4.052 1.28-.669.723-2.255 3.172-1.587 1.044-2.687 1.53-1.949 5.788-2.701 1.78 3.007-.723 4.344 3.965 7.114 1.127 7.114.64.863 2.518.989.779 5.04 3.743 1.517 1.391 13.115 3.172 2.394 3.019 3.634.988.042.834-3.286 2.755-.779 6.247.348 2.434 2.074.947 1.893 2.059 1.699 2.128 3.188-1.377 2.771-5.843 5.374-3.019 4.134-8.751 9.175 6.705 4.511-1.919 3.648-2.922 8.631-.292 2.632 1.015 2.826 1.225 1.42-9.349 6.042-2.505-5.402-2.518-3.606-4.716 1.518-1.628-3.049-2.741-2.269-3.993 2.046-3.965-3.717-1.474 1.698-1.559.641-2.212-3.606 2.199-2.506-2.366-3.369-4.034-3.063-2.059-2.645-7.179-6.126-3.52-.153-1.391-1.309-2.087-3.759-2.936-1.768-4.438-1.044-1.85 4.775-.111 2.562.695 2.2 1.976 1.865.556 2.785 1.489 2.102.737 6.14-.097 5.081-.598 1.629-2.212 1.88-3.548.515-2.156 5.443 1.767 7.198-.279 1.81-3.074.933-3.367.027-3.91-.877-3.255 6.655-7.095 6.404 1.836 1.81-2.49 3.021 2.142 2.256 3.019-2.019 3.13 2.631 3.075 3.745 2.045-2.018.404-2.103 6.692-3.884 2.907 2.687 3.395-1.197 7.123 10.024-16.25 10.636-.848-.487-11.673 7.894 3.284 6.014-11.631 6.321-1.503-2.2-2.323-.432-1.531-1.559-4.312-.724-2.852.098-3.214 2.325-3.061-4.372 2.073-2.325-.028-1.03-2.991-5.249-1.586-.334-1.669-2.311-.696.919-1.405.153-3.144 1.838-2.477-2.673-.083-1.365 1.794-.71-.208-.849-1.461-1.183-.084-2.952-2.74-.125-3.27-2.854-1.168-4.232 3.38-2.019-4.493-5.917-6.832 5.249-8.709-10.693.167-1.698.626-.125.181-.85-1.308-1.448-3.742-1.573-1.336 1.003-1.391-.808-2.727.195-1.224.891-1.711-.988-1.155-2.91-3.116.557.487-3.606-.404-2.297-1.182-.682-1.879.515-.556-.613-1.892-.111-1.03-3.731.543-1.713-1.572.098-.404-3.578-2.253 1.086-.64-1.977.556-1.309-3.617-.613-.932 1.852-2.073.348-2.546-.654-1.823-2.075-.528-4.705-1.712-.599-.918-2.562-.668-.473-2.142.807-1.28-1.782-2.574-.821-.89-1.81.236-2.241-1.266-1.351-2.504.139-2.393-3.229-1.433.348-1.725-2.674-.278-1.865-1.726-1.504.863-2.951-1.196-2.395 2.239-1.851.32-.989-2.086.334-.668-2.255 2.894-1.782.765-1.824-.905-1.378.07-1.295 1.099-.654 1.753-6.293 2.657-2.242 3.033-2.84 2.908-.236.501-.39.028-1.615 3.436-1.49 1.461-1.573-.209-1.824 1.197-1.002 1.641-3.898.014-.878-1.572-1.127.209-1.991.765-.961.751.669 3.228-1.699 3.548-3.829.653-2.937-.612-1.364-3.325-2.325-1.725-7.156 1.336-7.491 2.212-2.77 2.893-.39.933-.682-1.795-.654.014-.683 1.906-.264.57-.877.028-2.144 1.67-1.921 1.168-6.878 1.586 2.172 1.308.278 1.238 2.214 6.191-1.1 2.031-3.592 1.127-.599-.014 1.685.543.766.612-.084.209 1.546 1.182.292-.18.849 2.059 2.339-.905 2.325 1.252 2.172 2.268.988 1.795-1.266 1.085.194.501 1.17 1.308.891 4.187-.515 2.421-3.898.348-2.548 2.309-.808 1.238.376-.904-1.517.292-.543 1.392 1.114-.209-1.462-1.294-2.075 2.323-1.211-2.114-1.392-1.892.473-.348.71.083-1.03-.834-.919-2.435-.543-.668-3.842 2.755-10.692-1.405-2.019 2.059-2.757.459.682-.098-1.935 1.252-1.754.919.251-.139 1.531.584.501 1.029-.334 2.435.766 4.675-4.232 2.184 1.322 2.17 5.374 1.405 4.636-1.252 1.643-.194 1.337.89 5.039 2.908 3.021-1.461.822-.932-.766-.891.279-.125-1.072-2.073-.627-.946.78.042 2.241-2.602.125-.57.961.542.209 1.141-1.03 1.183.738 1.669-1.365.724.696 1.572.153 1.558 1.838.376-2.297.737-.014.57 2.353 2.449 4.093.403 3.662 1.406 2.408.306 5.151Zm314.783-51.595.584.418.139 1.782-1.057 4.288-.932 1.016.57.988.473-.501.473.418-1.419 1.392.042 1.239-.779-.278-.905 1.461-1.92.251-.612 1.114-2.643.25-1.211 1.852-.111 1.866-1.53-.808 1.947-4.149-.486-2.464 1.502-1.559.097-1.796 1.267-1.74-.028-1.699-1.531-.779-.431-1.212-.57.153.82-3.828 2.421-.891.849.849 1.21-.097.626 1.044 1.099-.126.487 1.657 1.559-.111Zm89.902-41.349-.71 1.406.738 2.52 3.13 2.576.598 1.601-1.085 1.782 1.141 1.281-2.115 1.531 1.656-.571 3.005 4.4.306 1.42-.891 3.397-1.739 1.406-4.772-2.13-3.464-2.854-1.085-.112 4.911 4.609.501 1.949-2.198.111-1.906-1.963-5.412-2.158-.348-1.128-2.059-.918 1.614 2.338 1.155.349.306 1.364 4.201 1.838.153 1.072-1.614.696-1.836 2.144-3.52 1.322-1.169-.696-.027-1.81-.905.599.293-1.044-.46-.571-.514-.07.292 1.017-2.337-.919-.807-3.787.097 1.713-1.683-.237 1.363 1.114 1.739 3.355-2.198 3.815-1.837-1.977.195-1.81-2.462 3.299.375-.821-.542-.153-2.004 2.394-.598-.459-.57.626-.585-1.28.724-.502-.195-1.197-1.739-3.327-1.28-.724 1.447 1.253 1.016 3.411-.181.71-.612-.418.542 1.824-1.28 1.643-2.713-1.017-.055-.668-.877-.153-1.322-1.713 1.072 1.991.681.098.084 1.587 1.113-.084-2.296 2.659-3.839 1.059-.056 1.002-.682-.989 1.224 1.922-1.029.64.264 1.184-1.099 2.519-2.504-.111-2.518 1.35-.974-.222.862 1.476-1.836.389-1.196 1.309-.446-.473-.737 2.436-.918-1.893-.682.765-1.864-.807.236.738 1.6.431 1.35 1.462-.265 1.685-4.104 4.859v.64l-.821.181-.389 1.838-1.739 2.074-.557 2.172-.834.696-.279 2.729-1.502 2.032-.237 1.769-4.66 10.01.014 3.578-1.169 6.014-.014 5.054-.821 2.882.974 5.039 1.21 1.379-.751 4.148-.348.404-.417-.724-1.391.863-1.016-.208-.167.751-1.934.014-.445 1.086-2.017-6.529-.905.598-.987-1.517.459-.989-.404-.821-.598 1.935.529 1.643.807 1.698 1.21.543.07 2.827-.543.682-1.628-2.325-.445-2.283-.807-.529.209-.989-.891-1.782.167-2.395-.64-.25-.055 2.088-.71-.682.418-1.866 1.627-1.907.946.835-.125-1.489-2.88-.655-.027-2.45-.877.209.264 2.297-.973-1.448-.64.167.417 2.367-1.252-.223 1.168 1.754.835.223-.654-1.211.543-.627.807.947-.098 1.907-.834-.389-.362.473.682.654-.126 2.325-.681-.654.487-.404-.306-.779-1.934-.683-.334-5.485-.501-.947-.139.919-.849-.376-.779-3.146-.222 1.42-.515.097.334 3.203-.793.793-.167-1.336-.932-.265.473-1.615-.668.084-.543-1.156.738-3.494-.39-1.727.779-1.67-1.697.083-.724 3.731-.876-.041.542-1.045-.333-2.45-.766.654-.584-.389-.598 2.603-.459-.348-.835.668-.918-.64-.793.682-.39-1.949.598-2.548-.653-.821.25-.975-.807-.278.584-2.924.432-.682.807.056-.446-2.785-.751-1.308-.57 1.489-1.419-.167-.042-2.993-.737.097-.112 1.643-.389-.752h-.807l-.598-1.851-.418.612-.835-1.364.543-2.297-.863.278.209-1.072-.988-.682-.598-3.272-.542-.376-.028 1.142-.612.111.361-4.455.348.766 2.518.961.918 1.225 2.699-.836 1.141-5.958 1.684 1.183 1.001-.195.418 4.483 1.238-2.297.376-2.241.32.988.779-.306.779.64 2.532-.417.876-1.546-2.601 1.016-.376-1.35.431-.738-.487-.404-1.572 1.629-.389-1.559.918-.835-.696-.251-.626-1.517.292-1.323 1.698-5.374 1.697-1.615 1.308-2.701 1.544.404 1.322-1.044 1.725-.39v-.975l-1.266-.348-4.536 1.198-1.001 1.197.25-1.476-1.099-.487.751-1.003-.194-1.225-.807.585-.376 2.381-1.795.236-.014-3.772 2.964-6.446.793-.098 1.28-2.812-.529-.418-2.699 3.286-1.363.501-.418-1.309-2.142 3.286.278-2.924 2.17-3.285-1.196 1.113-.904.265-.306-.446-.905.543-.654 2.966-.89-1.532-1.364-.194-1.14-1.838-.696-.139.404-3.133-.738-2.074.807-1.866 1.391-1.253 4.077-6.975 9.989-7.072 3.867.417 1.934-.487-.723 2.423.821 1.601.709.459 2.004-.223-1.406 3.244.446.835 1.266-.069 2.1-2.687 1.058-.251.375.905 1.002-2.701.626.738h1.169l-.529-.724.918-1.67.821 3.049 1.099-1.963.028.696 1.099.292 1.03-.668-.515-2.381.556-.668.71 1.183-.167 1.921.696-1.587 1.419-.612.167-1.42 2.226-.028-.098-.682-1.141-.223 1.141-.835 2.518.96.362-.835 1.948.111-.084-1.197 1.239.209 1.641 1.225.487 2.214.724-.028-.529-2.144-1.656-1.685-3.533-.39-.404-.738 3.284-.835.097-.654-1.224-.167.055-1.058 1.364.222.32.877 1.377.014.181-1.378-1.169.501-2.073-2.882.612-2.784-.403-.821 6.149-2.729 5.565 1.559 1.809 4.483 2.059 2.144-.571-2.631.39-.446-.932-1.044-.376-1.74.432-.849 2.281-1.448.626.738.682-.126.056 1.587.654.683.918-.418-.571-1.211.473-2.84.779-.362-.055-.697 1.029-.222.543-.877 5.718-.766.64.25.417 1.309 2.783-.167 2.949 1.058-.083 1.309 1.224.195-1.071.682.111.473 1.642 1.894 1.558-.362 1.433.793.097 1.88.529.028.097-2.13 1.739-.905 2.393.139.766 1.044 2.156-.265 2.309.752 1.058 4.678Zm153.997-43.729.431.515 1.92-1.671 1.338-.25 2.88 2.046 2.81-.974.94-1.448-1.94-1.476.07-1.128 2.86-1.058 1.55-2.353 3.15.265.23.585-.81.278 3.35 1.601 1.6 1.852 1.89-.334.09 2.478 1.86.389-.78 1.504 2.56 3.62.96.181.73.974-3.13 2.938.93.682-.18 1.323 2.63-1.518.01 1.49 1.32-.348.41-.849.45.654.42-.808 1.1-.292.06 1.559-1.3.877.82.432.06.947-.64.306.58 1.448 1.98-.39.81.585 2.74-.209 3.77 1.462.08-.947 2.89.696.39.975 1.76.863-.13 2.408.48.808 1.9.181 1.04-.515 1.94.404.49 1.461 2.46-1.378-.04 1.907.89 1.003.14 1.476.75-2.785 2.64-1.309.58 1.142.71-.153.14-.891.95-.585 2 .362 1.37 1.559-.81 1.782 1.71.571.89-.807 1.43.738 2.61-1.88 1.66.112.92.751-.3 1.643 1.57 4.915.65.487 1.19-.014.64-2.478 1.5-1.754.72-3.843 2.9-1.698 2.5-.418 1.27.376.36 1.142 3.38-.683.97.752 2.99-1.044 2.06.306 1.09.836 1.64-.641 2.98 1.476 1.12-.988 2.05.069.75 2.2 6.27.626 4.3 3.356 1.56 2.338-.32 2.075 1.25.724.02 1.155 1.1.961-1.28 2.645 1.3.334-.72 1.504.33 3.258-2.76 1.573-.5 1.921.96 1.323-2.58 2.185.1 2.465-5.23.891-3.76 2.729.15 1.851-3.43.293-5.34 2.116-2.26-.78-.46 1.044-3.5.975-2.17-.39-.66.821.36 1.671-.82.376-1.44-.696-.5-1.114-2.48-.947-6.66-.933-1.63-.71-7.25-.264-1.1-.988-3.67-1.393-4.65-.083-1.06-.696-.3-1.365-.81.78-3.05-.404-1.99-1.462-5.52-2.213-.9.431-5.14-1.322-1.63.821-.48-.71-1.76-.362-1.01-1.517-.56.389-1.82-1.239-2.21-.097-4.01-1.559-2.45-2.033-3.11.111-1.3-.988-2.79 1.016.15-.96 1.74-.46-.42-1.42 1.14-.919-.07-1.1-2.13 1.574-2.15-.042-1.55.71-1.39-.613-1.2.334-1.08-.946-.39.334-.67-2.45-1.83.974-3.872.167-3.116-1.782-3.923-.529-1.392.334-.848-.543 1.015-.097.112-.836-1.155-.375-1.391-1.504-5.134 1.517-1.683 1.045 1.933-2.158-.737-.515-2.49 1.378-.891 1.42-1.029-.223-.751.891-.724-.557-1.864.836-1.308-.223.278-1.365 3.437-2.965-.612-1.03-1.141.473.097.905-1.989.153-3.186 1.657-1.753.028-1.419-.696-.779.584-1.642-.918-1.071.32-.571 1.183-.96-.125.028 1.03-3.2 1.643-.793-1.156 1.002-1.893 1.628-1.183-.863-1.003-1.28.78-.542-.515-.056.696-1.294-.627.014 1.1-1.586 1.114-3.033-.835.57-.07.265-1.378-1.35.738-.668-2.144-.876-.07-.042 2.269.724 1.699 3.951 3.369-.668 2.005-3.339 1.476-.821-.209-2.699-3.035.056-1.226-1.934 3.328.529 1.336-1.795 1.351-2.435-.571-1.878-1.49-1.53-3.146-1.183-.432.904-2.13.126-2.158-.459-.487-.599 3.272-.96.654 1.086 1.977-.863 1.448.362 1.058-2.018 2.687-1.224-.251-1.029.529-1.573-1.628 1.183-6.697-.793-1.1.056-1.086 1.252-1.81-1.113-.389-1.447 2.311-.724 3.842-.862-1.336-.612.139-.891 1.392-2.824 1.267-.695 1.476-1.99.849.111.947-.89 1.253-.751-.557-1.531-3.564.515-2.882-.932-1.629-.863-5.457-1.6.793.404 2.687.807.919-1.962 5.527-1.405.571-.988 2.575-1.544.46-.696 2.561-1.363-.501.292 1.741-1.795-1.212.084-.696-.779.529.96.933-.404.877-1.168-1.81h-.891l.487 1.072-1.489 1.184.209-2.799-1.141-1.67-1.21 2.575 1.544 2.381-.737.821.056-1.03-1.044-1.211-.626-.014-.348.961-1.043.57-.251-.835 1.141-.418.306-.779-.807-2.729-.932.766-.055 2.005-1.865 1.503-.793 2.715-1.113-.975-.807.669-1.502-3.202.014-2.771-.571-.933 1.934-3.299 1.03-4.428-1.392-.055-2.1 4.552-.849-.236-.668-1.643-1.975-1.448.181 1.1 1.405.96.779 1.838.626.098-2.31 9.272-.793.209.084-.557-1.419-.39.598 1.824-3.186 3.717-2.045.32-2.17-.529 1.739-3.188.264-2.353-3.909-6.697-1.99-1.656.487-2.186-1.377-.794.292 3.133 1.614 1.531 1.502 4.372 1.113 1.002-.097 1.88-.738.348.654 1.684-2.963 5.082-1.35 1.128-1.78-.112-1.851-1.239-1.14 1.03-1.308-2.506-.863-3.118 1.656-4.831-.348-3.3-1.391-2.701 1.099 4.302-.139 2.061-1.058.64-.055 2.952-2.24-1.184 1.711 1.769-.195 6.738-1.182 1.295-1.628-.126-1.071.794-6.052 1.434 1.252-3.091-1.169-.529-.835 1.81.46.32-2.755 1.03-.445.864-.779-.446-2.101-4.358-2.282-2.338.418-1.476 2.615-2.673.751-4.984 1.419-2.395-.027-.947-1.698 3.119-.347 2.631-3.771 3.606-.584-3.481-3.715-3.021-.361-1.782.765-2.241-.376-2.52-1.099-2.297-2.727-1.225-2.407-.014-.64-.891-3.853.348-1.99-.933.529-1.058-.946-1.197.57-1.072 2.324-.349 1.391 1.448 2.309-.835 2.644.501.695-.584-3.241-.571v-2.089l4.493-1.016 4.856 1.267 1.363-.529 2.045 1.629 3.576.571 1.363 1.392.71-.376.682.459.166-.529-1.405-.153-2.615-2.422h-2.004l.126-1.156 1.753-.362-2.713-.543-1.086-1.782-6.775-.097-.459-1.908-1.252-.083-.362-1.532.779-.584-.32-.849.71-1.824-.418-3.147.487-1.406 1.962-1.1-.487 1.212 1.878 2.046 3.284-.334.139-.78.988-.292 3.77-.209 2.031.474 2.574 1.907 1.739-.07 1.043 2.27-.793 1.601 1.461 1.768-.849-2.548.891.056.612-1.671-1.864-3.675.946-.752 9.21-.641.028.919 1.6.348.459 3.272 2.1 2.269.056 1.058-.64.14 1.322.877.195 1.197-.585.696.793.821.056 2.395 2.574 2.074.487-.125-.696-1.002-1.586-.836-.515-2.937.32-.599 1.586.613 2.129-.933-2.031.473-.919-.584-.069-1.323-1.28-2.088.696-.251.598-1.879-.891-1.031.209-.905-.779-1.782-1.558-1.977.32-1.322 1.711-.543 1.503.306-1.169 1.587 4.605 2.353-.529 1.754 1.016.154.876-.599.418-2.172-1.197-.39 1.03-1.865-1.002-.362-1.53-2.451 2.88-1.629.987 1.379 2.602.487 2.56 2.673 2.991 1.323.974-.195-1.071-1.88 1.127-.097.612-1.17-1.684-2.241-2.045-.571.807-1.114-.849-1.935 2.073-1.016 1.336-1.532 4.494.237v1.114l.667.362-.848.376.125.849.904.738.863-.501 3.339 1.698 2.087.251-.557.557.348 3.856 1.85 1.768.946-.417.877 1.127.626-.042.237-1.823-1.976-.251-1.447-1.504 1.057-2.422-.194-.919-.877-.209.946-.807 1.586.557.209-.85-1.753-1.086-.056-1.113-1.461-1.156-1.21-.264-.264-.682-.905.125-.681-.794.055-1.726.849-.766 2.741-.125 5.481 1.336.529 1.365h2.588l1.099 1.016.876-.097-.598-1.963-.96-.877-1.781.334-1.224-.474 1.572-.598-1.043-.655.389-.362 2.741.153.668-2.283-3.743-1.74-1.975.334-1.294-1.1 2.365-1.977 1.934-.738-.292-2.297-1.016-.292 3.005-1.977 2.226-.585 2.365.501-.904 1.1 1.836.863-1.113.446-.041.961 2.1.375-3.185 6.112 1.363-.139 1.196.668 1.851-2.102 1.975.195 2.24-1.1 1.155.71 2.295-1.016.167-1.866-1.029-1.141.835-1.253 5.05-.265 1.155.348 1.46 3.021 1.656.822-1.043.71.598 3.216 3.297 2.882 1.099-1.49-1.294-1.267.752-1.281 1.711-1.127.626-2.075-.738-.682 1.545-1.935 1.28-.307 3.617 1.448h1.809l1.6.961-.014.515 2.323.181 1.419-1.865-2.323-1.128-.139-1.225-.529-.028.431-.654 2.435-.348-.153.654 1.474.334.474.835 6.497 1.935 1.391-1.503-1.002-.752 1.878-.153 1.183.71.626-1.156 3.269-.292 1.002.446 1.419 2.617 1.864-.613 1.809 1.532 1.516-1.991 1.767 1.267 1.183 3.16 2.087-.056 1.85 1.379.904-.905.78.028 1.558 1.865 1.683.71 1.211-.292.111-.724-.028-1.782-1.155-1.518.543-1.044 3.909-.097 3.671 1.309.68 1.601 1.8 1.768-3.09.139-3.478 1.058-1.767-.292.264.598-.709 1.128 1.238.264.584 1.393h.919ZM1183.56 14.07l.42.557-.44.306-2.47-.626-3.59.863-1.96-1.935-1.76.71-1.3-.877.89-2.005-.48-1.88.36-1.113-.31-4.066-1.1-1.684.95-.502 6.62.557 4.15 1.671 1.64 2.311.62 2.158-2.24 5.555Zm-84.04-90.118.53.752-4.89 2.826-.19 3.842-.82.6-.36 1.503-.88.041-3.1-2.575-2.38-4.664-2.28-1.838-.84-2.116 1.09-1.42-2.16-.404-1.53-1.782.24-.877 1.17-.473 3.53.473.42 1.253-.75 1.504.54.376 2.42.027 4.52-2.018 3.98.807 2.1-1.517.4 2.798-.69.724-.07 2.158Zm-4.55-13.546-2.17-1.95-1.92 1.17-1.8 2.938-1.96-.042-.68-.877-.32-1.35 1.71-2.27.14-5.569.86-1.56 2.08-.486 4.34.473 3.16 1.601 1.12 2.214-.47 2.645-1.64 1.782-1.89.083-.56 1.198Zm61.73 39.942.83.975-.12.877-3.37 2.255-2.21-.654-2.11.445-2.2-1.002.32-3.41.46-.238.65.126.61 1.448 1.25-1.086 1.66.877.38-2.604 2.28.14 2.32.515-.75 1.336Zm17.77 13.658-.8 1.239.42 2.45-.46 1.1-5.8 4.051-.47 2.395-2.41.014-3.66 3.495-.36 1.085-2.78 1.532-.71.014-1.59-1.922-1.01-.487-.64.474-1.48-3.565-3.3-2.352-2.01-5.639 8.36-2.186 1.9-3.912 1.73-1.475 1.6-3.94 2.17.083 3.67 2.033 1.39 1.81-.37 2.158.61.668.82-.014 2.2-1.977 2.98 2.868Zm-34.35-37.799-.28 1.142-2.15 1.141-.82 12.099-4.02 1.072.39-2.144-1.67-.557-1.14.25-2.64 2.45-1.45-.138-.68-.766-.03-2.033-5.52-5.666-1.17-5.457.7-3.592 1.44-1.782 1.66.376 2.6 2.993 2.28-1.058 1.94 1.378 2.63-1.462-.8-1.88.27-.626 3.73-.25 1.72.473.45 2.2 2.15.125.41 1.712Zm11.47 14.855-.79-.793.53-1.003 5.26 1.17-3.44 1.294-1.56-.668Zm41.13 26.146.05 1.532 1.55 1.266 3.41 9.676-.57 2.966.33 1.42-1.7 4.761-1.11.25-3.38-3.494-1.63-3.633-1.85 1.072-1.31-1.643-2.61.25-2.87-.78-2.93 1.741 1.75 1.643.75 2.562-.29 1.044-2.19.71-1.43 2.074-3.23-5.346-.79.042-1.43 3.494-1.94 1.211-1.44-2.394-.66-3.467.28-1.531-1.21-3.55 8.57-10.498 2.27-1.462.58-2.032 1.69-1.907.83-4.901 3.83 2.436 1.32.098 1.35 2.436 1.22-.25 4.79 4.204Zm-41.43-29.404-.29-1.35 2.86-2.283 3.03-.64 1.8-1.045.47 1.504-1.6 3.94-2.78 1.392-3.49-1.518Zm5.51-8.715.96 1.323-.38 1.573-.54.46-2.48-.362-2.71 1.684-.63-.877-.09-3.327-1.69-2.465 2.95-2.895 2.12-.64 1.25-4.038 2.92-1.253 1.32 1.378 1.41 3.132-1.02.989-1.28-.446-1.72.557 1.69 3.342-.44 1.17-1.69.152.05.543Zm42.9 27.538.56.863 1.49.265-.67 1.197-6.91 3.16-1.44-1.183.18-1.211-1.12-.487-1.12.334-.43-5.082 1.38-2.046.79.515 1.37-.39 4.64 2.84 1.35-.097-.07 1.322Zm-45-44.732-3.83 4.386-.95 3.536-3.91 1.49-.22-2.228.88-2.882 3.46-2.631 1.74-.404-.78-4.455 1.64.585 1.01-1.365.52.112.58 1.434-.14 2.422Zm39.58 22.067 1.26 6.836-1.44 3.759-3.97 1.963-3-.752-1.44-1.796-2.54-.46-.23-.89 1.37-2.005-4.23-1.086-3.22-5.332.02-1.267 5.16-1.518-.01-1.016-3.11-1.88-.07-.626 1.88-.348 3.29 1.81 2.04-.655 1.86.474 6.38 4.789Zm-83.37-92.833.42 5.207 2.51 1.03.36.808 1.68.264.99 3.355-.43 2.409-1.55 1.852-2.01-1.017-.6.627.41 2.088-.87 2.019-1.3.71.55 1.657-.3 1.517-3.06 1.114-.62-.376-.11-1.197-.98-.613.93-1.49-.18-.904-1.89-1.226-.82-1.461.29-2.827 3.16-2.826-1.81-.863 2.42-2.896-.21-1.684-1.08-.975-2.18-.125-.78 2.227-.82-2.13-.69.014-1.21 1.545.39.947-1.74 2.019-2.14-3.536-2.49 2.547.17.836-.85 1.016.15 1.462-1.78 1.754-1.2-1.448-.52-2.561-4.26.194-2.77 1.824-1.43-1.907-.21-1.713-1.84.39-1.79 2.799-.42-1.643-1.28-.891-2.25 2.422-1.92-.083-1.1-1.1-.74-2.186 4.33-2.854 2.07-2.631-1.53-1.337-1.77.07-.16-1.392-.7-.502-2.48 1.309-1.18-.515 1.09-3.87-.53-2.367-1.81-2.701.26-1.907-.46-1.1 2.65-.028 2.67 2.116 1.33-.139 3.02 1.155 6.78 4.971 3.91.96 2.72-.167.34-.612 5.79 2.812 3.13-.766 3.1 1.184.79-2.52 1.71-1.156 1.26 1.754 2.25-.055 1.22 3.313ZM1254.8-13.83l-3.02 4.58-3.9 3.787-3.06 2.367-1.5-.167-1.99.877-1.45 1.28-.4 1.268-3.65-.279-2.63-1.712-3.71 2.353-1.67 2.756-1.91-.348-2.71-1.824.81 1.588-4.7 2.116-1.56-.64-1.56.222-2.24-4.107-1.02-3.049.8-2.436.12-3.383-2.04-1.212-.6.877-1.07.098-.82-.766-6.29-1.476 2.63-5.86-.34-1.476.46-2.353 3.45-.836.6-2.297 3.33-2.937.25-1.198 1.49.46.69-1.504 4.08-2.91 2.5-.974 2.59-.084 1.25-2.784.38-.32.26.933.67-1.114 2.66.153 1.19.974 3.05.794 1.15 3.3-1.86-.223-2.24-1.713-.5.502 3.49 2.241-.05 2.562 3.77 1.239.19 1.336.52-.515 1.19.195 2.48 1.727 3.28.946.56 1.894 5.47-.516 4.13 4.636-1 2.952Zm-67.33-68.956-.12.877 1.01 1.629.03 3.536 1.27 1.74-.24 3.383-8.05-3.773-1.88-2.603-3.61-.098-.66-.918-.28-3.258 2.32-1.908.18-.96-1.81-2.34L1173-88.8l-.55-4.065 1.19-1.448 2.68-.473 2.75.947.53.39.12 1.767 2.36.293 1.73 1.434.26.863-1.6.85.09.598 1.51.64 2.19-1.17 1.24.99.78 1.308-.01 2.074-.8 1.017Zm37.47 33.817-1.75 4.399-4.54 3.258-2.42-1.95-4.31-.194-1.38-2.13.1-2.882-1.21-.738-.87-3.397 1.17-1.754 2.31 1.17 4.97-1.49 2.04.57 5.01 3.37.88 1.768Zm-79.98-77.839-2.56-.501-1.83-1.379-.37 1.295-.75-.083-2.17-1.894-.87.446 1.33 1.1-.45.445-2.7-.362-.79.738-.52-.849-2.32-.153.53.863-.43 2.102.56 1.058 4.93-.599-.34 1.908 2.71-1.1 1.54.738-.71 2.046 1.09 1.17 1.33-1.337 2.33.515-.17 4.79-1 1.141.89 1.03.38 3.745-.87.474-8.11.543-3.18-1.546-2.42 1.755-3.79.891-3.17-1.003-6.16-5.081-3.68-.613-2.22-.947-1.51-1.503-1.3.696-.3 2.91-3 3.285-1.7.585-.54-.487-1.67.195-1.24-.543-1.45-1.977-1.07-3.523-1.9-1.517v-1.699l-1.55-.403-2.22 2.784-1.32-.599-.74-1.127-1.67-.056-2.37 2.45 1.33.126.33 1.197 2.38 1.768-.18 1.573-1.38.849-.03 1.281-2.88-.069.25 2.116.78 1.197-.87 1.824-1.48-.167-1.18-1.351-.78.502-.03.779-.96-1.044-.81-3.007.88-1.796-.51-1.267-1.98.752-1.79 3.383-4.39 1.155 1.49-3.188-1.14-1.67-2.71-.321-.64.557.22.78-1.15.71-4.01-2.088 1.28-2.228 6.76-2.784 2.23 1.169 2.56.084-3.01-3.481.95-.529 2.01.654 1.13-1.099-1-1.587-2.11-.307-.84-1.281-.97.446-.24-1.378-.9.487-1.01-1.309-.64.167-.39 2.395-.66.445-1.06-1.531-2.84.251-.74-.766-.18-3.244 2.63-1.378 1.03-6.293 1.99-1.768 2.99.71 2.69-.766 2.63.961.07 2.018-3.4 2.423.27.682 2.06.529.91.835-1.03 2.033 2.17.64-.2 1.24 2.99 2.575-.42-2.812.5-.752 2.37 2.255.54-.097-2.84-4.761-.06-1.727.94-2.186 2.35.961 1.44 2.367 2.06.501 1.34 3.453.93-.877-.3-2.618 1.46-.487.11-.807-2.67-3.954-4.64-2.604-.3-1.476 6.19.933 3.64-.111 1.83.626.16 1.755 2.92.334 1.45 1.782-.61.501.42 1.225-1.62 1.142.16.654 1.1.348-.66 2.325 1.56 1.002 1.91-2.269 1.4 1.406.97 2.144.99.153.86-.501.6-1.406 1.45-.139 1.34-1.699 1.55.529.16.655h.97l.56-3.536 2.36.612.61 1.42.67.167 2.48-.25.17-1.142 1.15-.376-.68-.682 1.29-.599.5-1.169-5.2-2.562 1.22-1.253 3.22-.682-.21-.654-1.77.069-.4-.877-1.68 1.017-.59-.335.59-2.311 2.61.696 1.27-.765-.09-.947-1.3-1.03 5.89.946 1.19.961 1.57-.459 2.24.403 5.26-2.088 6.57 1.615.01 1.88.96 1.601-1.28.222-2.59-1.642-4.1-.961.78.752-.88.459.79.961-.92 1.643 1.23.64 1.64-.863 4.83 2.213 6.11-.682-3.66 6.502-1.35.905Zm87.48 59.252.49.627-.71 1.824.61 4.232-.59 2.088-3.79 1.434-1.58 1.434-1.69-.39-1.67-2.227 1.67-7.1-.2-2.645.59-1.755.64-.362 1.94.64-.69.697 1.04.57 2.35-1.851 1.59 2.784Zm-33.77-34.206.23.64 1.28.39-.56 2.283 1.01 1.462-1.43 5.694 2.33 1.768 4.67 2.2 1.29 3.272-.66 2.227 1.43 4.998-1.85 3.244.08 2.116-1.01 2.186.65 3.856 1.45 2.312 1.33 4.232-.85 2.77.09 2.367-.96 1.128-5.79 1.197-5.93-2.088-.65-.794-.06-1.865 1.99-3.355-.8-3.342 1.05-1.197.39-1.56-2.08-3.73-.69-2.688-.58-.78-1.39-.305-.43-2.938.33-2.896 2.06-.222.14-.92-1.56-2.032-.05-3.731 1.74-3.133-.83-.988-1.5.752-1.93-2.214-.48-3.508 1.52-.181.43-1.824-.36-.835-2.32-.794-.39-2.06 1.92-2.534 4.32-.014.02-.794 1.31-1.448 1.48-.348 1.1 1.128-.5 2.896Zm15.67 14.785 3.28 3.174.32 1.518-.6 3.55 2.91 2.52.02 1.74 1.69 2.367.14.724-1.33.89.19 2.618-1.03 3.425.75 1.058-.43 2.13 1.57 1.156.18 2.826-.58.863-4.19-.71-1.58.306-.82-.515-1.05 1.379-2.53.055-2.23-4.204-.32-3.662 2.69-2.91.18-2.38-.78-2.645.54-2.66 1.55-1.433.75-3.398-1.5-3.981-.87-6.349.34-1.642 1.7-.223-.31 2.144 1.35 2.27Zm48.69 45.024 2.92 3.509.8 2.742-.62.502-1.92-.307-1.82 3.05-2.53 1.447-8.46 1.95h-2.11l-4.2-2.228-2.62-4.567-.1-2.102.84-1.532-.94-2.854.44-2.046 3.54.682 2.31-.78 2.41-.014 2.39 1.17 2.67-.278 7 1.656Zm-98.87-108.634-.43 1.434.77 2.784-1.92 2.701-2.78.557-1.65-.821-1.06.556-.56 1.615-1.57-1.573-2.09-.612-2.31.919.46-1.796 2.52-.571 1.09-.891.21-1.295 1.82-1.49.36-1.949.79-.905 2.34.808.54-.376-.35-.794.77-.125 3.05 1.824Zm138.11 137.87 1.76 2.549.11 1.949 1.17 1.03-.61 4.706-1.18 2.993-.6 1.1-.54-.265-3.23 5.597-4.61.097.8 1.323-1.88 2.436-.27 1.546-3.27 2.297-10.83 2.993-2.59-.752-6.57-.417-1.88-1.017-1.09-1.545-5.61-2.242-.22-.445.9-.766-8.74-2.339-1.1-1.434 1.37-1.336 1.99-7.254-.13-4.608 1.41-1.684 6.76-1.003 5.41.153 3.14-1.141 2.48.417 1.53.724 4.93 5.402 2.22.613 3.29-1.727 3.17-4.483 4.45-2.7.68-1.1 3.79-.502 3.59.836Zm-64.28-68.691.44 2.228-1.05 1.976-.96-1.183-1.89.362-4.29 2.617-1.5.223-.59-.947-.76.237-1.69-1.378-1.68-2.186-.37-4.664-.71-1.935 2.1-.627 3.31 1.393 2.64-.14 7 4.024Zm29.91 22.944-.74 1.545-3.32-.487-.57-3.829-1.77-3.021.2-2.311 3.06.78 2.08 2.478 1.35 2.742-.29 2.103Zm-30.27-47.725.75 2.199-.6 1.601 2.03 1.142.13 5.638 1.4.571-1.92 3.954 1.63.96 1.63-.932-.61 1.949.79 3.578-3.9-1.643-.97-1.364-2.64-.668-1.56-1.059-8.47-.431-1.4.612-4.2-.863-1.33-2.032 2.95-1.643-.49-2.353-5.19-1.573-2.42-4.288.36-1.058 1.99-.794 1.57-1.768.02-.654-1.27-.683.32-.821 3.06-1.03.38-1.88 3.35.543-.13.71-1.19.585.32 1.378 1.64 1.476.35 3.689 1.15.237.46 1.016-.64 1.95 1.59 3.285.8.39 1.16-3.494-.13-2.075 3.22-1.545 2.36-4.901 3.65 2.089Zm24.51 22.637.68 1.072 1.49.738.03.724-1.21-.404-1.09.891.07 1.601-2.44 4.678-.76.612-1.97.168-3.83-1.852-1.88-4.803.89-3.119 2.38-1.406 4.48-.334 2.2.25.96 1.184Zm-3.99-22.93 1.03 2.45-2.17 1.755.39 1.225-.96 1.183.48 2.38 1.53 1.115.99 2.436-.72 4.567-.91 1.545-1.36.752-4.38-.627-2.1-1.295-2.52-3.355.06-2.06-1.02-2.02.97-2.227-.11-1.949-.93-.097-.6-1.378-1.18-.432.04-1.323-2.06-2.339-.07-.793 2.16-2.492 1.39.779 2.69-2.854 1.6.181 1.65 3.133 1.82.153.3.794 2-.669 1.99 1.462Zm66 45.832 1.98 2.84.52 2.227-.08 2.172-1.49 3.05-3.56 1.781-2.99.126-2.17-.669-2.2-3.508-1.96-1.74-1.23-3.091-.09-2.13 2.21-3.049-2.32-3.133-.2-2.561 2.31-.752 2.05.654 2.36 2.562 2.49.989-.85.737-.89-.417-.75.39 6.86 3.522Zm-31.36-51.958 1.13 2.604-.67 2.506-2.16 1.879-1.42.251-1.33 2.144-2.74.626-4.38-3.104-.88.125-.56-1.726-2.18-1.685-1.87.279-.77-.669-2.69-.125-.74-.682.09-3.536 2.18-2.409 2.48-.501 1.46-4.497 4.6 1.434 1.83 2.464 6.14 2.228 2.48 2.394Z"/><path d="m396.69 300.462-2.017-.71.403 1.183-.918 1.448.278 1.114-.681.599.013 1.155-3.951.167.306 1.894.863.362-1.461 1.907.348 1.072 1.085.501-1.349 1.657 1.767 2.297-1.113.808.5 1.086 2.338.389.167.864 1.071-.181.501-1.337.709 2.019-.445 1.002.612.557-.167 1.337-.292 1.127-1.002.39-.278 1.894 1.544.097.014 3.745-1.043.014-.821.821.459 1.156-1.461 1.128-.139.807 1.698 1.81-.334.501 1.029 1.782-1.127.599-2.031 3.592-6.191 1.1-1.238-2.214-1.308-.278-1.586-2.172-1.169 6.877-1.669 1.922-.028 2.144-.57.877-1.906.264-.014.682 1.794.655-.932.682-2.893.39-2.213 2.77-1.335 7.49 1.725 7.156 3.325 2.325.612 1.365-.654 2.937-3.547 3.829-3.228 1.698-.751-.668-.765.961-.209 1.991 1.572 1.127-.014.877-1.642 3.899-1.196 1.002.209 1.824-1.461 1.573-3.437 1.49-.027 1.615-.501.389-2.908.237-3.033 2.84-4.494-3.383-.417-1.336.403-1.574-.626-.543-.32-1.99-1.753-.697-1.878.516-1.21-2.715-5.76 1.308-12.34-3.466.042-1.49-2.519.292-.306-.473-.306-1.754 2.24-2.186-3.088-.752-1.726-5.318-4.994-.933-2.226 1.56-.209-5.054-1.182-.432-3.103-3.995-4.674-1.365-.543 1.156.334 2.701 1.864.501.71 1.879-3.924 1.671-.751.028-.598-2.938-1.169-1.475-.904.904-1.642-.529-2.907.126-2.463 1.211-1.391-.362-.654-1.044-4.076.599-1.406-1.602-15.651-35.682-1.113-1.253-.459-2.325-1.642-1.643.501-1.893-.779-1.894.236-2.408 4.244-.654.751-.724 1.6 1.072 6.149-1.532 3.242.125 1.711-.849 4.869-.139.557-.613 6.734-.807 1.794-.877 5.356.626.334-.612 4.633-.265 14.191-5.819 1.377-3.857-.041-3.55 2.017-2.965-.404-8.507-1.6-3.967 1.322-11.792 4.271 1.127 6.817-1.893 2.755-1.615 1.113-2.757.918-.139.529-1.086-.64-1.671.334-2.422-.946-1.949.375-1.713 1.433-1.127 1.712-2.882.904-.654 2.602-.181.765-2.743 1.6-.682-.084-.808-2.991-2.882.028-1.364 1.141-2.172 1.989-2.715 1.948-1.364 1.809.362 1.015 1.128.877.097.167-1.42 2.017-.654.264-.627-1.85-2.548.069-1.044 3.562-.39 2.894-3.424 3.728-1.031.084-2.951 4.215 1.211.599 1.768 1.711-1.657 3.617-4.677 4.062-7.379 1.392-6.182 2.56-4.121 2.239-5.777 4.619 2.868 3.145 3.619 4.438 3.662 1.892.891 3.687 4.246 3.227 2.478-.584.39 2.142 2.423-2.434 2.798.793 2.047-1.767 3.995 4.201 4.511.766-.153 1.029-1.587.988 2.074-.209-3.104 2.407 1.935 2.88-2.075.696.112 2.295 3.021 2.087 4.65-3.381-2.687 1.225 2.172 2.365 1.308.153 1.184-.459-.153-.334.863.417 1.225 1.016 1.824 1.043-.543.584.584-1.307.446.821 2.269-2.755-1.67.473 3.202-2.143-1.894-6.413-2.77 2.824 1.991 1.753.222.807.724-.334.446 2.031 1.114.098.487-1.113.139 1.892 2.283-.459.683.751 1.447-.974.585 1.349.126 1.573 1.433-.153 1.657-.947.279.807.529-.389.278.584-.612.278.417-.041 1.49-.473.111.542.404.32 3.216-.695 1.114.556.223-.097.626-.668.668.362 1.476-.376.682-.598-.376-1.03.724.251.585-.654.07-.515.988.974-.278.765 1.322-.348.822-1.168.529-.96-.543.598 1.406-.932-1.49-1.475-.111.251.501-.696.251-.348 1.155-1.183.487.891.112v.974l-1.642-.334.571.682-1.044 2.409-.584.139.028-.779-1.489 1.517-1.962-.097-.806 1.587-1.127-.432-.849-1.406-.404 1.295-1.53-1.866-.167 1.782-.431-1.155-1.044-.543 1.127 3.16h-.974l-1.279 1.838.82.459-.973.808.89.417-.167 1.17-.515-.404-.042 1.963-.834-.362-1.058 1.949.891 1.225-1.238.46.18.487-.751.501.543.042-.752.278 1.141-.083-.626.32-2.198-.445.737 1.1-.751 1.809.501-.25.111.891-.64.39-.139 1.782-2.212.626ZM45.263 352.726l-.473.585-4.953.195 5.426-.78Zm26.364 3.801-.598 2.854 1.377 1.601-.056 2.032.793 2.298 1.378 1.294-.696 1.337 2.115.807 2.35 2.854 1.434.571-.946 2.562.542-.07-.403 1.991.598 1.295-1.655 2.269-2.588-.362-1.336 1.587-1.474.167-2.101 2.381-.78 2.506-13.856-12.418-14.775-18.74 2.546.404 1.836-.835.626 1.378 4.216.515.71.599.194-.752-1.614-1.643-1.906-.404.849-1.684-.584-.668-.807.111-.849 1.211-.793-1.072 2.991-1.127 1.892-2.562 1.614-.641 1.266 1.852 1.712 1.044.445 1.337 1.892.835 3.339.278 6.566-1.141.265.682-1.53-.139-1.823.766-6.678.194 1.433 2.214.904.32.098 1.713 2.086 2.339 2.574.543 3.729-5.096.584.947 1.1-.682 1.794.348Zm497.384 52.167 42.892 9.453 3.019-3.439 1.21.988 9.433 1.003 22.107 26.382 13.342 14.131 53.479 52.292.738 1.49 2.671.64 1.308 1.81 3.325-.933 18.99 3.355 3.743-3.271 5.231-1.95 5.008-.027 2.059 1.113 1.099 3.105 1.252-1.476 5.468-.515 2.407-3.494 7.763 2.06 1.489-.71 2.017.877 3.464-3.995 3.367.25 1.906 1.852 1.544.599.64 2.645.849.988 2.685.655-1.238 1.211-3.645.64-7.819 8.771.125 3.745 1.781 1.532 2.254.556 1.989 1.769-.737 1.907-1.322 1.016-2.087.334.223 3.342-1.419 2.673-1.266.014-1.642-2.785-1.043-.32-2.435.654 1.489 3.272-.807 2.562-1.28 1.002-2.017.209-4.174-1.726-4.132.821-4.605-.71-3.743 1.072-2.003-.585-3.645 4.929-4.369-.334-1.28-1.198-2.323-.821-1.948 1.197-2.935-.988-1.99.376-2.601-2.632-4.814.529-3.423-.557-2.754-1.559-3.297 1.657-1.517.097-1.502 3.175-.529-1.476-3.13-.042-2.324 1.351-1.391-.112-1.391.808-1.211-.321-.793 2.019-2.393.279-1.46 1.183-10.866-3.383-2.463-.71-3.325.07-.626.487-1.516-.627-7.388 1.88-1.182.738-1.6 2.52-3.172.25-1.489-.599-2.003 1.142-4.577-1.211-1.6 1.128-2.699-.641 1.099-1.601-.445-1.364.904-1.295-1.642-3.759-2.935-.153-1.892 1.949-1.169-.891-.863.557-1.892-.919-1.6 1.156-1.53-.836-1.656 1.49-.153 2.436-1.015-.348-2.713 1.378-2.783.502-.111 2.923-5.634 5.694-.654 1.434 1.558 1.671-1.044 2.186h-2.142l-1.781 1.058-2.629-.459-2.672 1.447-1.001-.222-1.211 1.879-4.368 3.564-5.189 3.244-.96 1.295-1.364-.167-.918 1.782-2.045.376-1.809 2.756-2.156.46-1.197 2.06-.181 4.33-1.836 1.782-2.421.167-2.921 4.511-.195.974.626.822-.779 2.2-2.532 2.617-2.351-.627-1.531 1.587-1.043.209-4.424 4.79-2.894.974-3.061 3.592-3.882-.988-2.309.751-1.809-1.448h-1.196l-12.299-11.973-3.533-4.538-1.879-.515-2.448-4.873-1.238.348-.46-.599-2.184.961-1.085-1.476-5.968 2.771-2.922-4.845-4.494 1.824-4.215-4.859-3.381 1.573-.904-1.295-4.23 1.699-9.349-12.781-3.13 2.075-4.021-5.667 4.077-2.241-4.87-6.404-3.394 1.587-2.825-3.3-3.756 1.253-3.548-5.221-7.262 4.483 2.379 5.277-1.196.835 1.363 2.812-1.419 1.031-.612 1.587-2.337.612-.529-3.592-1.586-.891-11.854 3.147-.932-.822 1.252-3.731-1.794-2.492-6.303 1.351-1.252-1.476-3.241-2.047-2.212-.905-1.753.084-1.016-1.573-1.169-.529-.848.598-.432 1.601-2.74-1.489-3.312 2.673-.139.919-1.85 1.517-.292.933-2.644 1.782-1.961-.459-.738-1.128-.347-1.323 3.45-2.506-1.99-2.603.974-1.309-1.127-2.548-1.321-.013-.223-.669 3.701-3.146-4.73-6.655 6.316-6.265 2.212-3.105 1.614-.64 4.549.07.64-1.253-.181-3.161 2.838-2.617 3.604-5.973-.125-1.183 3.213-2.325 2.852-.097 4.327.71 1.544 1.573 2.31.417 1.488 2.214 11.645-6.307-3.283-6.014 11.672-7.894.849.487 16.25-10.636-7.123-10.024-3.409 1.183-2.908-2.687-6.691 3.885-.404 2.074-2.059 2.033-3.075-3.745-3.116-2.646-3.019 2.019-2.143-2.255 2.491-3.021-1.837-1.81 7.096-6.405 3.255-6.654 3.923.863 3.367-.028 3.061-.947.278-1.81-1.767-7.197 2.157-5.444 3.547-.515 2.199-1.866.612-1.642.097-5.082-.737-6.14-1.475-2.088-.57-2.798-1.948-1.866-.696-2.2.112-2.561 1.85-4.775 4.438 1.044 2.936 1.768 2.086 3.759 1.406 1.295 3.506.167 7.192 6.111 2.059 2.646 4.035 3.062 2.365 3.37-2.212 2.52 2.212 3.605 1.558-.64 1.475-1.699 3.965 3.718 3.993-2.075 2.727 2.284 1.627 3.048 4.703-1.503 2.518 3.606 2.532 5.402 9.349-6.043-1.238-1.406-1.016-2.826.279-2.645 2.935-8.646 1.906-3.634-6.706-4.51 8.751-9.175 3.033-4.121 5.83-5.388 1.377-2.77Z"/><path d="m245.032 327.291-.418-.752-1.168-.501-.279.418-.5-.975-1.308 1.114-2.101-.961-1.266 1.212-.139-1.309-2.463-.849-1.391-2.757 8.695-1.1.891.446 6.469-.543 1.044 1.35 2.629-1.35 2.685-.543 1.628.71 4.953.39 2.671-.529-.237 2.408.779 1.894-.431 1.935 1.642 1.643.459 2.324 1.113 1.253 15.651 35.683 1.406 1.601 4.076-.599.654 1.045 1.391.361 2.463-1.211 2.907-.125 1.642.529.904-.905 1.169 1.476.598 2.937.751-.028 3.924-1.67-.71-1.88-1.864-.501-.334-2.701.543-1.155 4.674 1.364 3.103 3.996 1.182.431.209 5.054 2.226-1.559 4.994.933 1.726 5.318 3.088.752-2.24 2.185.306 1.755.306.473 2.519-.292-.042 1.489-1.057 1.782-2.004.947-2.504-.223-.626.738.153 1.351-1.544.682-1.364.111-.598-1.712-.821-.404-2.615.334-1.197 3.063-2.059 2.979-5.996 3.94-1.837.307-2.49 2.102.167 1.643-.821.765-1.155-.014 2.115 4.65-1.53.14-3.59 3.397-.361.891 1.502 2.339-1.544 1.907-.32-2.019-1.851 1.963-3.13.32-.125 1.769-2.087.362-1.753 1.113-1.113-1.141-2.017.041-.598-1.127-1.266.32.111-1.754-3.381.404-.765.849-.543-.209-.347.933-1.614-1.476-1.405-4.246-1.907-1.379-1.349.376-.459-.932-.153-1.769-.737-1.016 1.544-5.583-1.976-1.197-.57-1.239-2.24.209-.668-3.62.376-1.573-2.421.557-2.922-.334-1.46.905-.849 1.656-1.725.501-1.294-.57-1.211-4.859 1.753-2.645-.987-5.611-.668-.39-2.49 1.546-.668-.39-.459-.571.236-2.158-1.252-1.559-2.156 3.244-1.294-.181-1.058 1.03-3.13.71-1.822-.794-.334-2.005-1.058-1.113-3.492 1.629-3.366-.307-2.449 1.587-.793-.32-.696-1.615-2.713-.682-.737-3.132-.515-.098-.862.251-.251 1.03-1.53.362-.863 1.865-1.6 1.546-2.059-.362-.667-1.476-1.698-.501-1.029-1.281-.334-1.42.821-1.991-1.809-3.48 1.447-1.894-.028-5.151-1.224-1.03-3.52-6.168-1.03-.835.933-3.578-.668-1.949-1.28-1.671-2.755-.028.251-1.28 1.029-.613 6.289-2.896 2.239.237.905.877.779-.64 1.461.18.361-3.647 2.699-1.699 1.225-3.09 1.363-.864 1.461-.041.64 1.114-1.447 2.171.89 1.977 1.086.251 3.325-2.52 1.293.404.195 3.23 3.033 1.642 2.268-.236.403-.432-.347-1.155.723.39.849-.599 1.238.097 1.21.85 3.437 5.917-1.572 1.183.306 1.838.737.598-.445.446-.195 4.455.278 3.202 1.044 1.462 2.059.946 1.767-.682 1.127 1.156 1.878-.098.528-.779-.932-3.885 2.755-2.617-.431-3.021 1.864-1.225-1.962-3.105-2.699-7.1-1.182-.766-3.172.557-2.672-2.617-.793-1.601.863-1.448-.403-2.325.848-1.796-1.099.32-.807-2.228 2.184-5.638.529.501-.723 2.116.64 2.284 1.099-2.214 1.015-.515.348-1.017-1.099.293.362-1.476 1.085-.612-.362 1.225.626 1.1.668-1.838 1.252.863.209-.738 1.169-.418.417-1.475-.445-.307-.445.78-.501-.362-1.03 1.253-.57-.348ZM203.35 351.46l-.014.014.014-.014Zm298.435-214.082 1.308.473.696 1.894-.418 1.559.654.989.306 3.564-1.099.849 1.058 2.06.806-.083 1.753 2.701-.292.765.974 1.671-.222.863-2.56 2.061-3.131.487-1.6-.543-2.323-4.385.083-1.56-.918-.278-1.502-2.228.612-1.225 1.196-.306.905-2.353-.779-.083-.167 1.336-1.976 1.058-1.155.014-.946-.78.056 1.866-1.906 1.016 2.532-.083.515 2.046 1.266 1.685-.028.668-1.294.432.821 1.406-.598.626-1.364-.612-3.269.237 2.156 1.044 1.378-.822.459.738.946-.306-.292.487.667.223-1.363 1.559 1.809-.501 1.349 1.378.417 1.142-1.919.473-1.197 1.03 2.922-.891 1.85 1.379-3.715.32-.111.613-3.144 1.141.821.654 2.671-1.197 4.188 1.796.806-.25 1.086 2.867-2.226.112.96.515-.32.571-2.616.891-1.377-1.462-.223.585-.96-.014 2.838 3.146-3.199-1.643 1.627 2.52-1.461 1.434-1.029-.445-1.809.557-2.935-1.657-1.433-.098 1.377.794.946 1.504 1.016-.265 1.669 1.309.779-.947.724.223 2.713-1.1 1.057-1.476 1.336-.167-.919-.39 1.378-1.044 1.808 1.532-.222.529 1.224.167.515.988.89.112.918 1.782 3.033 3.118-.598.905.431 1.323 3.061 4.928-.542.905 1.182.042 1.071 1.712-.194 1.003.807.139.153.766.695-.14.153-2.52 1.35 1.351.083 1.42 1.308 1.364 1.503 4.066.723.027-.264 2.186.64 1.532.709.041-.32 1.1 1.475 2.228-1.057 2.367.626-.209-.306 1.002h.445l.751 2.144.431 8.367.821 2.576-.459 1.267.459.905-.515.71.752.64-.487 1.713.834 1.253.126 2.659-.167 6.265-1.127 4.051.459.209.056 3.202-.891 4.928.362.669 2.379-1.156-.459 3.216 1.057 1.198-.668.835-.194 3.759-.626.487 1.252.529.125 9.676.473-1.169h.668l.055 1.392 1.308 1.03 2.477-4.316-.905 4.191-1.447 2.784.181.571.473-.223-.32 2.715.918 3.787-1.405 1.267-.153-1.184-.709-.041-.765 3.438.542.265-.25 1.504 1.447-.223.626-1.017.626.516-.223.612.668-.334-.751 3.258 1.335 1.058.056 1.281-1.294 2.826-2.504 1.197-.891 1.559-1.474.78.361 1.726-.514 1.184-4.216 3.466-.306 1.421.515 1.768 1.155.125-.237.877-1.892.919.125 1.629-1.461.32-2.337 2.59-.904-.738-.473 1.169-4.146 2.395-10.963 1.169-1.419 1.03-1.461-.459-1.322.961-2.407.236-4.048-.96-4.633.181-6.998-3.523-5.746-1.434-2.003-2.227-3.27-1.128-3.812-3.341-1.182-2.464-2.017-2.325-1.628-3.133-1.085-5.457-2.755-6.711-3.645-4.009-7.235-12.196-.779-2.367.835-1.559-1.127-1.184.167-5.875-.626-1.295-1.363-.974-1.948.167-1.656-1.128.348-2.046 1.558-1.587-2.462-4.497-1.016-.682-.139-.697.793-1.044-.737-.014.111-1.058.807-.417-.821-2.827.738-1.434-1.447 1.42-.209-.71-1.266 1.963-1.475-.445-.556-5.959-.014-3.995 1.015-4.971.988-1.016 2.546.905-2.323-1.685-.237-2.408-1.53-.863-.404-1.044.195-1.727-1.516-.125-.946-1.531-1.294.459-.974-2.645.473 3.285 1.141.418.445-.835.598 1.406.112 1.503-.877-.515-.181 1.212.849.793.431 1.601-2.351 3.077-2.379-.459 1.294 1.294.055 3.258-.57.432.111 1.782-1.266-.738-.028.557 1.67 4.872 1.822 2.381-.041 1.211-.779.502.069-1.184-1.001-1.448-2.032.947-1.641-3.007-.599.71-2.295-3.021-.696-.112-2.88 2.075-2.406-1.935.208 3.104-.988-2.074-1.029 1.587-.765.153-4.202-4.511 1.767-3.995-.793-2.047 2.435-2.798-2.143-2.423.585-.39-3.228-2.478-3.687-4.246-1.892-.891-4.438-3.661-3.144-3.62-4.619-2.868 2.727-9.272 2.991-3.94 13.773-3.787 1.823.292.653-.626 7.249-1.044 4.869-3.342-.264-6.557 3.923-10.887-3.575-10.122 7.443-11.625 7.902-2.478 4.605-2.993-2.838-3.397.083-1.225 9.057.766-.041 2.213 1.892.139 3.214-.765 2.253-1.225 3.451-3.342 2.574 1.128.125.961 5.718-.237 1.405 1.712 2.643-.167 3.534-1.837 2.296-3.885.82.738.293 3.105-.529 3.731 2.894 2.951 2.518-.013 2.741-3.022.111-1.113.96-.627.918-2.005.209 1.601 1.266.376-.237.766.793.459 1.447 4.985-1.21 1.211-4.257.835 1.099.292 2.031-.696.89.39 1.364-.891 1.961 2.715.265 1.518.528-.474.07-2.408 3.436-2.52.988-.07.32 1.211-.167 3.731.654-.598.403.626 1.127-2.464v-1.587l.96-.153.126-1.908 1.293-.932.668.807-.654.376Z"/><path d="m214.229 384.316.668 1.475 2.059.362 1.6-1.545.863-1.866 1.53-.362.264-1.016.863-.251.501.084.751 3.146 2.699.669.779 1.587.793.348 2.435-1.601 3.367.306 3.492-1.629 1.057 1.114.334 2.005 1.823.793 3.144-.724 1.057-1.03 1.28.195 2.156-3.244 1.267 1.545-.251 2.172.459.571.668.362 2.504-1.531.654.376.988 5.61-1.753 2.645 1.21 4.859 1.294.571 1.725-.501.863-1.671 1.447-.891 2.935.32 2.421-.557-.376 1.574.654 3.633 2.254-.222.571 1.239 1.975 1.197-1.558 5.569.751 1.03.139 1.754.473.947 1.336-.362 1.906 1.378 1.405 4.247 1.628 1.461 1.029 3.035-1.043-.125.056.808 1.739 3.243-3.117 2.367 1.461.348-1.238 1.629 3.214-.571.848.877.738 2.799.834.25-.236 1.657 1.85 4.191-.167 1.531-.848 1.044.181 1.156-.752.919.042.988 1.155 1.49-1.308-.056-.904-1.517-1.294.041-.209-.849-1.572.126-.529-1.254-1.461.961-2.991-4.357-3.617-1.198-.862.084-.46 1.322-3.06.334-1.225-.835-.89.084-.195-1.699-.709-.209-.473-1.587-1.656.014-1.071.961-.306 1.169-1.308.028-.849-3.327-.946-.502.223-1.085-.849-.85-.069-1.796-1.364-1.002.376-.571-3.381.153-1.544-2.13-3.854.571.264 2.882-1.892 1.392-1.933-.32-1.267.71-.5 1.42-1.322-.042-.501-1.197-1.739-.822-.097.905-1.225.446-.487 1.1-1.085-.585-.974.446-.737.682.237 1.322-1.239.655.209-2.297-2.115-.39-.055-1.448-1.016.097-.25-1.086-.696-.278-3.756.947-1.044-1.128-1.461.292-.876-.932-.584.445-1.113-1.392-1.6 1.35-.752-1.141-.82.236-1.406-.793-.542.682-.584-.418-.418.891-.584-.25.584-1.393-.876-.57-.946.25-.251-.835-1.906.348-.069.933-.863-.501-1.85.737-2.894-4.009-1.308.056-1.266-3.411-.222-.724-1.906-.543-.334-1.671.612-1.42 5.064-2.2-1.127-6.167 2.379-1.1v-.724l4.382-.265-.932-.988-.306-1.893 2.407-1.072-.417-1.365 1.906-.292 1.252-1.114-2.602-2.687-.918-2.701-1.043-1.044.904-1.128-.125-2.659-1.225-2.311 1.628-1.044.348-1.434 4.466.682 2.921-2.923ZM655.24 373.22l-2.212-1.128-1.308-1.559-1.28-.251-1.057-1.281-.71.515-2.296-.765 3.506-.307 2.407.543 4.021 4.469-1.071-.236Zm97.262 48.936 1.683 4.441.25 2.256-.25 1.141-.598.543-.39-.306-.097 1.267-1.753 2.366-.418-1.141 2.435-3.94-.529-3.23-.932-1.434-.097-2.659 1.336-1.504-.64 2.2Zm-89.444-91.677.724 4.371-.529-.529-.292.905.96.07.056 2.701-.946 3.257-2.268 2.771-4.647 1.503.793-1.266 5.662-2.687.64-1.309-1.377 1.35-3.075-.208-.639.891-3.409-.85.25.418-1.127.097-.292.571.487.348-2.379.098-3.798 1.35-4.535-1.364-.126-.738-.417.64-5.384-2.213.292-.404-2.908-1.323.487-1.211-1.391.919-.835-2.422.473.918.209-6.334.71.487-.028-1.225-.585.306-.069-.487-1.475 2.033-.417 3.508-.264-1.044.027-1.866 1.072-1.656 7.262-7.351 4.285-3.035 4.953-2.256 5.412-.292 2.74.626 4.313 3.035 1.002 2.841.403 6.056Zm-99.724 36.503-.362.307 4.021 2.52-.25 1.03 1.071-.543 1.196 1.086 5.051 1.517 1.182 3.049.584-1.058 4.007-.724 3.451-3.202.556-2.172 2.323-.125 2.338-2.617 4.215-1.128 2.477-4.26 3.366-.112.39 1.755-.445-.251-.487.766 3.353-.153 1.321.57.557 1.977 3.603.571.111.529-.681.042 2.073 1.657.584 2.478-.946-.334-.264.821.932.627-.445-.724 1.127-.153-.209-3.746-1.558-.723 2.253-1.309 1.586-1.894.446-3.87.431 4.358 1.475 1.865 2.045 1.072 6.761 1.448 8.626.808-1.196.751-3.52-.654.027 1.003 1.072.348.403-.488.571.599.626-.766.765.404 1.405-.459.32-.71 14.135.222.417 1.81 4.884 2.771 1.474-.056.626.71.64-.446 1.169 1.504.988-.153-.779-1.058 1.683-.348 3.59 2.339 5.05 1.629.25.668-2.448.39-1.155-.989-.932 1.128 1.906-.098.32 1.434-.918.808.973.139.223.585-.459-.153-1.099 1.322-1.739-.376-1.044.46.07 2.882.612-.279 1.057.808 3.715-.098 1.502.502 2.129-.961-.584-3.007.862-1.56-.292-.932 1.642-.891-2.616.111-.584-1.671 18.712 2.715 7.263 3.007 6.58 4.776.918 1.81-1.057-.195-.515-1.212-1.558-.222-5.662-3.439-2.964-2.409v.696l-1.196-.139.362 2.451.528-.168-.055-1.364 1.293 1.518 1.016 2.965-1.433.654-.904-.821-1.99 1.1-1.071 1.378-2.184.042-1.795 1.044.431 1.295-.626 2.993-2.74 3.467-2.226-.334-.821 1.044-.404-.961.376-1.963-.849-.459.098-.766-.376.459.39.975-1.294 1.239.431-1.406-.793-1.713-2.476-.751-2.922.64-1.433 1.406-.487-.571-1.781 2.423-.862-.446.139.501 1.572.098.793-1.016 1.502-.418 2.073 1.1.919 1.392 2.073 1.072.139 1.058.57.237.181.933-.835.167-.111.946 2.198.362-1.642.474 1.934-.348-.501.751 1.503-.167-1.558 1.17-1.531 2.311-4.716 1.267.139.64 4.717-.821 4.076-2.882 1.057.724 3.395-.195.334.807-1.892 4.316.097 1.212 1.155 1.127-1.419.78 2.309-.696 1.002-1.253 1.725-.251.974-2.923.153.682.125-.71 4.174-1.476.695.696.32-.487h2.449l.167.529.209-.432 2.866.028 2.893 2.84 5.496.404 1.28.947.528 3.564 1.684 1.712 2.601.989.891 2.06-.278 2.144.932 2.826 2.977 2.339 3.13-.042 1.294-1.211 4.536-.946-.654-1.24-2.866-.863-1.642-1.754 9.572 4.65.083.557-1.127.209-.82 1.378 1.335.167.932-.543-.097-1.211.668-.167 13.857 4.483 3.046 2.854.682 1.462-.403.292-.459-1.1-1.74-.738-2.198-.028.863 1.671.501 5.346-1.141 3.342-2.546.96-1.489-2.102-1.294-.404-1.182 1.072-2.198.334-.988 2.604-3.116 2.283-.084 1.114 1.67 2.422.556 2.534 3.186 1.74.988-.348.848.71 2.157-.849 3.436-6.474 3.562-.835.139 2.2 4.257 3.313 3.381.376 5.036-1.504 1.517.126.848.988-1.266.794 1.586 1.615-.876 2.213.584.529-.264-.626 1.586-1.448-.237-4.107-.57.237.069-.46 2.533-1.559 1.112-2.005.766-.348 1.071-2.993-.056-1.142-.667-.195-1.433 1.685-.39-1.977 3.492-3.912 2.087-8.632.779-1.03-.07-1.462 1.127-.849.056-1.058 2.337-1.671 2.435.125.654 1.406 2.198 1.838-1.169.919.793 1.573.752-.055 1.154-3.3.821-.682.64 1.114 2.087-3.23 2.852-.181 1.141 2.923 1.572-.487-.626 2.13 1.21 1.072-.403 1.406.946 1.699 2.295 2.603 2.129 4.079 7.304 8.562.988 1.936-.918.946 1.127-.821 3.45 7.796 4.048 12.349-.111 2.59-.682.125.724.195.431 6.168-.974 2.7-2.24-.013-2.226.974-2.114 2.645-1.155.404-2.671-.473-1.322 2.993-1.155.404.209 2.269 1.363-.64.39 1.141.097 4.581 2.143 1.67.501 2.2-1.252 1.225.765 2.715-1.934 1.016-1.878 4.664-1.781 1.058-3.77.014-2.672-.668-.862-.975-.64-2.645-1.544-.599-1.906-1.851-3.381-.265-3.464 3.996-2.031-.863-1.489.71-7.763-2.061-2.393 3.509-5.482.501-1.252 1.476-1.099-3.105-2.073-1.128-5.022.042-5.217 1.935-3.757 3.286-18.99-3.355-3.325.932-1.308-1.809-2.657-.655-.738-1.489-53.479-52.32-13.342-14.131-22.107-26.382-9.433-1.003-1.224-1.002-3.005 3.453-42.906-9.44-2.129-3.188-2.059-1.698-.946-1.894-2.434-2.074-6.247-.348-2.755.779-.834 3.286-.988-.042-3.019-3.633-3.172-2.395-1.392-13.115-3.742-1.517-.779-5.04-2.518-.988-.64-.864-1.127-7.114-3.965-7.114.723-4.344-1.78-3.007 2.824-1.1 1.015.376 4.327-2.882 1.892 1.031-.723-1.337 1.6-4.191 2.351.181 1.53-1.865.891.25 1.14-3.731-.069-1.935.89-.64 1.28.139-1.558-.501.139-2.339.682-.571-.807-2.005-1.99-1.573.14-1.838 1.683-1.629 9.043-5.485 4.41-1.768.696.278-1.016.738 1.559-.529.25.39v-1.169l-.501-.223 2.908-1.49 1.224-2.561 1.6-.488.765.794.153-1.072 1.419.752-.751-1.281-.612-.056 1.614-1.504 3.478.251-1.795-1.155 5.273-4.915 2.073-2.854.445-4.121-.849-11.458.32-3.049.752-.779 1.892 1.865 2.198 9.551 6.72 6.585 4.716 5.61 2.476 3.927 2.532 6.988-.626-1.684-.82.181-.515 3.494-.891.947.46 1.824-.933 4.58.529 3.759-.362.557-1.001-.445.765.431-2.143 2.534-1.502 4.204-2.477 2.312-2.601-2.52-.974-1.977-.195.696-3.172-1.587-.779-1.114-2.031-.112-2.115-1.531.348-.626-1.823-1.045-3.339-.445-.236-.599-.765.293.654.431-.418.919-2.574 1.768-.194-.668-1.447-.557-3.451.251-2.504 1.058-2.532 2.199-1.335-.222.765-.014-.056 1.086.515.041.334 3.899 1.975 6.738-2.518 2.241.098 1.908-2.254 4.678.932 3.132-.237.543-1.127-.042 6.734 3.871.543.626-.181 1.016-.682-.014ZM788.02 392.07l-1.127 1.044.515 1.351-.042 4.051-1.781 6.544.265 3.772-.724.669.626 2.798.918.529-.751.668-.278 1.587-.39 5.012.654 1.49-1.252 1.42-1.405 3.355-2.059.502-1.099 1.517-.459-1.907-.543 1.322-.988-.905-.695.223-.167-.807-.348.765-.529-1.225-.334.863-.57-3.355-.598 1.267-.529-1.03-.793 1.35-.389-.863.542-1.016-1.308-.919-1.391-2.812 1.183-.543.041-.822 1.127-.932-.167.779 1.155.794.682-3.801-.32-2.269-.459.209-.585-1.448-.806-.279.194-1.169-.821-.877-.445-2.451-.681 4.553-1.113-1.169 1.001-2.534-.32-3.3.905-4.97 1.544-.654-.612-1.365 1.405.738-.167-1.281.682.237.361-.585-.96-.042.626-1.099-.612.083-.125-.626 1.544.292-.111-1.615-.598.125.626-.515-.543-.598.654-.432 1.544 2.325.265 2.631.793.543.835-.807-.529-5.096.515-.988.751 1.949.765-.766 2.212.432 1.711-1.434 1.433 1.239 2.449.278Z"/><path d="m202.988 351.849-.696.251-.25 1.281 2.768.013 1.267 1.685.681 1.935-.932 3.578 1.03.835 3.506 6.182 1.238 1.016.028 5.151-1.447 1.894 1.822 3.494-.834 1.977.347 1.406 1.03 1.281 1.683.487-2.921 2.924-4.466-.682-.348 1.434-1.628 1.044 1.224 2.311.126 2.659-.905 1.128 1.044 1.044.918 2.701 2.602 2.687-1.252 1.114-1.906.292.417 1.364-2.407 1.073.306 1.893.932.988-4.382.265v.724l-2.379 1.1 1.127 6.167-5.064 2.2-.613 1.42.334 1.671 1.906.543.223.724-.487-.265-3.13 1.796-1.795-.014.71.849-1.253-.028-.25 1.504.863 2.673-3.006 2.423 1.586 2.589-.556 1.281-1.016.097.265 1.601 1.711 1.713.056 1.03-.891-.64-.946.835.084 1.309-1.447-.028-1.141 2.45-.89.418-1.976-.418-.821 1.406-1.113.474-1.502 2.784-2.839-1.671-.514-1.406-.863-.445-1.377-.265-.056.668-1.962-.069-.236-.71-1.35.125-.292-.654.654-1.156-.751-.334.974-1.977-.64-1.336.584-1.448-1.099-1.573v-1.727l-.849-1.1-1.307.307-.459-2.548-.599.181-.932-.877-2.254 1.03-.027-.863-1.447-.808-2.908-.264-.014-2.158 2.755-2.144 1.127.432-.251-1.059.571-.348-1.851-2.52.306-1.113-.904-1.1-3.436-.933-1.141-1.197.876-1.351-.139-.779.96-.599-2.421-2.784-1.001.473-.71-.849-.153-.85.612-.195-.389-1.976 3.255-1.755.793-2.352 1.405-.961.71-2.464 1.182-.348-.653-1.379 1.627-2.603-.167-1.504 2.046-.57-.557-.892.334-1.447-2.504-1.114 1.46-1.323.891.195 1.085-.863 1.934-1.685-.098-.515 2.24-.153 2.852-2.241-.111-4.121-.695-2.005 1.196-.195.876-1.156-1.739-1.489.223-1.587 1.489.264.765-1.322.918-.251 1.238.404.084.584.64-.25.528-1.559.515.32.877-.599 1.864 1.309.403 1.072.96-.098.765-1.35-.695-1.281 1.461-1.601-.223-.752 1.35-.626-.153-2.019 1.599-3.383 3.117-1.559 6.747-8.813 1.809-.835 4.925-.251Zm123.25 35.07 12.34 3.467 5.76-1.309 1.224 2.701 1.878-.515 1.739.682.32 1.991.626.543-.403 1.573.431 1.323 4.48 3.397-2.657 2.241-1.753 6.293-1.113.668-.056 1.281.89 1.392-.751 1.838-2.894 1.782.668 2.256 2.087-.362-.334 1.002-2.226 1.838 1.196 2.394-.862 2.952 1.725 1.503.278 1.866 1.739 2.659 1.433-.348 2.393 3.23 2.504-.139 1.28 1.364-.25 2.228.89 1.81 2.588.835 1.28 1.782 2.157-.821.667.473.919 2.562 1.711.598.528 4.706 1.809 2.06 2.56.669 2.073-.348.946-1.866 3.603.599-.556 1.308.64 1.977 2.254-1.113.403 3.578 1.572-.098-.556 1.726 1.029 3.732 1.892.111.557.612 1.864-.529 1.183.683.417 2.311-.473 3.592 3.116-.557 1.141 2.896 1.725.974 1.239-.877 2.712-.209 1.406.794 1.349-.989 3.742 1.573 1.308 1.448-.208.85-.626.125-.167 1.698 8.709 10.693 6.831-5.249 4.493 5.917-3.38 2.019 1.168 4.232 3.27 2.854 2.741.125.083 2.952 1.461 1.183.209.849-1.795.71.083 1.365 2.477 2.673-2.755 1.364-2.727 4.065-3.687.098-5.398 3.647-.932-.069-.681-1.156-3.826-2.742-1.531 3.285 1.558 4.65 1.461.85 3.937.013-4.173 3.397-4.536 2.2 1.308 3.119-.417 1.03-2.212 1.907-3.103-3.355-1.28.139-1.001-.668.403-.794-2.268-1.935-2.323 1.406-.153 1.017-2.24 1.573-2.407-1.907-1.071.292-.654-.933-4.021 1.601-1.474-1.754-.112-1.309-.821.293-2.949-4.038-1.169.251-2.087-2.2-2.017.655-4.118-5.653-2.379-1.462.515-.626-.891-1.448.626-1.072-2.086-1.058-.543-1.713-1.071-.877 1.099-1.155-2.741-.933-.431.71-1.183-.376 1.99-2.715-2.254-.919-.96 1.072-.584-.25.194-.863-.514-.042-.112-1.81-1.502-.223-.418.502-1.85-1.017-.056-.779-1.057.974-.709-.348.765-2.743-.473-.501 1.015-2.436-2.866-1.838-1.294.07.209-1.741 1.489-2.074-1.03-1.782-3.784 1.754.445 2.311-2.601 2.27-.724-.39.042-.682-1.308.362-1.155-1.602-2.128-1.099-3.729-.752-1.391.306.71-1.517-.78-.195-.514.543-1.558-.028.194 1.141-1.029 1.086-.181-.654-1.823.599-.194 2.339-2.226.696-.877-.599-1.989.014-.585 1.086-.167-.585-.96-.014-1.599-1.1.639-.64-.306-.724-1.794-1.768-.821-.098-.042-.849-1.308.167-.431-1.656-.835.139-.848-3.216.361-.975.752.446.473-.696-.529-4.567.765-1.601-1.405-.849.765-2.102-1.655-.989-2.143-5.318-1.113.028-.139-1.504-1.141.112-1.238 2.185-1.656.488-.389.751-1.002-.083-.389-1.309-1.517-1.016.445-.334-.334-.585-.834-.752-.765.654-1.517-.793-3.687-4.664-1.071.181.084-.752-.682.766-.028 1.309-1.03-.585-.055.612-1.113.418-.167-.863.487-.237-1.197-2.088-3.283 2.478-.042-.793-.765.041 1.405-12.098-.932.181-.501-1.448-1.92-.362-.584 2.033-2.351-1.434-1.795 1.183-.584-.501-2.964 1.239-.681-.933-1.155-1.489-.042-.989.752-.919-.181-1.155.848-1.044.167-1.532-1.85-4.19.236-1.657-.834-.251-.738-2.798-.848-.877-3.214.57 1.238-1.628-1.461-.348 3.117-2.367-1.739-3.244-.056-.808 1.043.126-1.029-3.035.334-.919.542.209.766-.85 3.394-.389-.111 1.754 1.28-.334.584 1.114 2.031-.028 1.099 1.127 1.753-1.113 2.073-.348.126-1.769 3.13-.32 1.836-1.949.306 2.005 1.559-1.921-1.503-2.311.376-.905 3.589-3.397 1.517-.154-2.101-4.636h1.141l.82-.765-.167-1.643 2.477-2.088 1.836-.307 6.01-3.954 2.06-2.979 1.196-3.063 2.602-.32.821.404.584 1.698 1.377-.125 1.531-.668-.154-1.351.654-.738 2.491.237 2.003-.947 1.044-1.796Z"/></g><defs><clipPath id="a"><path fill="#fff" transform="translate(0 .97)" d="M0 0h1157v719H0z"/></clipPath></defs></svg>