<svg width="182" height="38" viewBox="0 0 182 38" fill="none" xmlns="http://www.w3.org/2000/svg">
<g clip-path="url(#clip0_667_22)">
<path d="M118.5 31.1553H125.8L120.6 22.1553C123.5 20.9553 125.1 18.5553 125.1 15.5553C125.1 10.9553 122.1 7.95532 116.1 7.95532H104.6V31.1553H110.9V23.0553H114.1L118.5 31.1553ZM118.7 15.5553C118.7 17.1553 117.6 18.3553 115.2 18.3553H110.8V12.7553H115.2C117.6 12.7553 118.7 13.9553 118.7 15.5553ZM93.3 14.4553V21.8553C93.3 25.2553 91.7 26.3553 89.5 26.3553C87.4 26.3553 85.7 25.1553 85.7 21.8553V14.3553H79.3V22.1553C79.3 28.2553 82.7 31.6553 89.6 31.6553C96.5 31.6553 99.8 28.2553 99.8 22.2553V14.4553H93.3ZM85.7 12.3553V7.95532H79.3V12.3553H85.7ZM93.3 12.3553H99.7V7.95532H93.3V12.3553ZM52.7 23.3553L49.4 7.95532H43L48.9 31.1553H55.7L59.7 15.9553L63.7 31.1553H70.5L76.4 7.95532H70L66.7 23.3553L62.7 7.95532H56.7L52.7 23.3553ZM163.6 16.2553H155.8V7.95532H149.4V31.1553H155.8V21.4553H163.6V31.1553H170.1V7.95532H163.6V16.2553ZM133.4 13.0553V31.2553H139.8V13.0553H145.8V7.95532H127.4V13.0553H133.4Z" fill="white"/>
<path d="M33.3 15.0554H0V0.755371H13.9V6.35537H19.5V0.755371H33.4V15.0554H33.3ZM19.4 31.6554V37.2554C27.4 35.7554 33.3 28.8554 33.3 21.0554V20.7554H0V21.0554C0 28.7554 5.9 35.6554 13.9 37.1554V31.5554H19.4V31.6554Z" fill="#CC0000"/>
</g>
<defs>
<clipPath id="clip0_667_22">
<rect width="182" height="37" fill="white" transform="translate(0 0.755371)"/>
</clipPath>
</defs>
</svg>
