<svg width="1157" height="720" viewBox="0 0 1157 720" fill="none" xmlns="http://www.w3.org/2000/svg">
<g clip-path="url(#clip0_668_3731)">
<path d="M438.289 352.67L439.68 353.784L442.282 353.38L443.575 352.169L443.701 353.854L444.897 356.276L444.243 358.323L445.996 359.91L446.233 361.567L447.568 362.792L449.558 358.378L451.464 356.527L452.382 356.555L452.465 355.664L455.206 352.225L455.554 350.011L456.417 349.287L455.721 346.726L456.111 344.275L457.112 342.716L458.462 335.407L461.509 332.163L464.875 330.214L467.171 329.894L471.679 331.425L477.202 331.69L484.158 329.963L490.474 333.416L494.884 334.404L500.895 333.792L503.621 332.817L504.86 333.444L510.146 331.188L512.498 331.982L513.986 337.676L513.374 338.456L515.099 340.878L519.885 344.832L518.717 347.672L520.261 350.721L519.788 353.06L512.539 352.99L511.565 354.633L515.044 353.52L519.023 354.466L518.814 355.148L519.412 355.023L520.149 356.012L519.078 359.59L519.454 361.302L517.464 362.151L515.642 366.203L516.922 365.534L517.645 363.279L520.817 361.692L521.861 359.005L523.391 357.056L529.179 354.355L530.959 357.362L530.236 361.706L534.201 368.82L535.328 375.934L535.968 376.797L538.486 377.786L539.265 382.826L543.008 384.343L544.399 397.458L547.571 399.852L550.59 403.486L551.578 403.528L552.412 400.242L555.167 399.463L561.414 399.811L563.848 401.885L564.795 403.778L566.854 405.477L568.982 408.665L567.605 411.436L561.762 416.81L558.743 420.944L549.992 430.119L556.697 434.63L554.778 438.278L551.856 446.909L551.564 449.541L552.579 452.367L553.804 453.787L544.455 459.829L541.95 454.427L539.432 450.821L534.716 452.339L533.088 449.29L530.347 447.021L526.354 449.067L522.389 445.35L520.915 447.048L519.356 447.689L517.144 444.083L519.343 441.577L516.977 438.208L512.943 435.145L510.884 432.5L503.705 426.374L500.185 426.221L498.794 424.912L496.707 421.153L493.771 419.385L489.333 418.341L487.483 423.116L487.372 425.678L488.067 427.878L490.043 429.743L490.599 432.528L492.088 434.63L492.825 440.77L492.728 445.851L492.13 447.48L489.918 449.36L486.37 449.875L484.214 455.318L485.981 462.516L485.702 464.326L482.628 465.259L479.261 465.286L475.351 464.409L472.096 471.064L465.001 477.468L466.837 479.278L464.347 482.299L466.489 484.555L469.508 482.536L472.638 485.167L475.713 488.912L477.758 486.894L478.162 484.791L484.854 480.907L487.761 483.594L491.156 482.397L498.279 492.421L482.029 503.057L481.181 502.57L469.508 510.464L472.792 516.478L461.161 522.799L459.658 520.599L457.335 520.167L455.804 518.608L451.492 517.884L448.64 517.982L445.426 520.307L442.365 515.935L444.438 513.61L444.41 512.58L441.419 507.331L439.833 506.997L438.164 504.686L437.468 505.605L436.063 505.758L432.919 507.596L430.442 504.923L430.359 503.558L432.153 502.848L431.945 501.999L430.484 500.816L430.4 497.864L427.66 497.739L424.39 494.885L423.222 490.653L426.602 488.634L422.109 482.717L415.277 487.966L406.568 477.273L406.735 475.575L407.361 475.45L407.542 474.6L406.234 473.152L402.492 471.579L401.156 472.582L399.765 471.774L397.038 471.969L395.814 472.86L394.103 471.872L392.948 468.962L389.832 469.519L390.319 465.913L389.915 463.616L388.733 462.934L386.854 463.449L386.298 462.836L384.406 462.725L383.376 458.994L383.919 457.281L382.347 457.379L381.943 453.801L379.69 454.887L379.05 452.91L379.606 451.601L375.989 450.988L375.057 452.84L372.984 453.188L370.438 452.534L368.615 450.459L368.087 445.754L366.375 445.155L365.457 442.593L364.789 442.12L362.647 442.927L361.367 441.145L358.793 440.324L357.903 438.514L358.139 436.273L356.873 434.922L354.369 435.061L351.976 431.832L350.543 432.18L348.818 429.506L348.54 427.641L346.814 426.137L347.677 423.186L346.481 420.791L348.72 418.94L349.04 417.951L346.954 418.285L346.286 416.03L349.18 414.248L349.945 412.424L349.04 411.046L349.11 409.751L350.209 409.097L351.962 402.804L354.619 400.562L357.652 397.722L360.56 397.486L361.061 397.096L361.089 395.481L364.525 393.991L365.986 392.418L365.777 390.594L366.974 389.592L368.615 385.694L368.629 384.816L367.057 383.689L367.266 381.698L368.031 380.737L368.782 381.406L372.01 379.707L375.558 375.878L376.211 372.941L375.599 371.577L372.274 369.252L370.549 362.096L371.885 354.605L374.097 351.835L376.99 351.445L377.923 350.763L376.128 350.109L376.142 349.426L378.048 349.162L378.618 348.285L378.646 346.141L380.316 344.22L381.484 337.342L383.07 339.514L384.378 339.792L385.616 342.006L391.807 340.906L393.838 337.314L394.965 336.715L394.951 338.4L395.494 339.166L396.106 339.082L396.315 340.628L397.497 340.92L397.317 341.769L399.376 344.108L398.471 346.433L399.723 348.605L401.991 349.593L403.786 348.327L404.871 348.521L405.372 349.691L406.68 350.582L410.867 350.067L413.288 346.169L413.636 343.621L415.945 342.813L417.183 343.189L416.279 341.672L416.571 341.129L417.963 342.243L417.754 340.781L416.46 338.706L418.783 337.495L416.669 336.103L414.777 336.576L414.429 337.286L414.512 336.256L413.678 335.337L411.243 334.794L410.575 330.952L413.33 320.26L411.925 318.241L413.984 315.484L414.443 316.166L414.345 314.231L415.597 312.477L416.516 312.728L416.377 314.259L416.961 314.76L417.99 314.426L420.425 315.192L425.1 310.96L427.284 312.282L429.454 317.656L430.859 322.292L429.607 323.935L429.413 325.272L430.303 330.311L433.211 333.332L431.75 334.154L430.818 333.388L429.927 333.667L429.802 332.595L427.729 331.968L426.783 332.748L426.825 334.989L424.223 335.114L423.653 336.075L424.195 336.284L425.336 335.254L426.519 335.992L428.188 334.627L428.912 335.323L430.484 335.476L432.042 337.314L432.418 335.017L433.155 335.003L433.725 337.356L436.174 341.449L436.577 345.111L437.983 347.519L438.289 352.67ZM753.072 301.075L753.656 301.493L753.795 303.275L752.738 307.563L751.806 308.579L752.376 309.567L752.849 309.066L753.322 309.484L751.903 310.876L751.945 312.115L751.166 311.837L750.261 313.298L748.341 313.549L747.729 314.663L745.086 314.913L743.875 316.765L743.764 318.631L742.234 317.823L744.181 313.674L743.695 311.21L745.197 309.651L745.294 307.855L746.561 306.115L746.533 304.416L745.002 303.637L744.571 302.425L744.001 302.578L744.821 298.75L747.242 297.859L748.091 298.708L749.301 298.611L749.927 299.655L751.026 299.529L751.513 301.186L753.072 301.075ZM842.974 259.726L842.264 261.132L843.002 263.652L846.132 266.228L846.73 267.829L845.645 269.611L846.786 270.892L844.671 272.423L846.327 271.852L849.332 276.252L849.638 277.672L848.747 281.069L847.008 282.475L842.236 280.345L838.772 277.491L837.687 277.379L842.598 281.988L843.099 283.937L840.901 284.048L838.995 282.085L833.583 279.927L833.235 278.799L831.176 277.881L832.79 280.219L833.945 280.568L834.251 281.932L838.452 283.77L838.605 284.842L836.991 285.538L835.155 287.682L831.635 289.004L830.466 288.308L830.439 286.498L829.534 287.097L829.827 286.053L829.367 285.482L828.853 285.412L829.145 286.429L826.808 285.51L826.001 281.723L826.098 283.436L824.415 283.199L825.778 284.313L827.517 287.668L825.319 291.483L823.482 289.506L823.677 287.696L821.215 290.995L821.59 290.174L821.048 290.021L819.044 292.415L818.446 291.956L817.876 292.582L817.291 291.302L818.015 290.8L817.82 289.603L816.081 286.276L814.801 285.552L816.248 286.805L817.264 290.216L817.083 290.926L816.471 290.508L817.013 292.332L815.733 293.975L813.02 292.958L812.965 292.29L812.088 292.137L810.766 290.424L811.838 292.415L812.519 292.513L812.603 294.1L813.716 294.016L811.42 296.675L807.581 297.734L807.525 298.736L806.843 297.747L808.067 299.669L807.038 300.309L807.302 301.493L806.203 304.012L803.699 303.901L801.181 305.251L800.207 305.029L801.069 306.505L799.233 306.894L798.037 308.203L797.591 307.73L796.854 310.166L795.936 308.273L795.254 309.038L793.39 308.231L793.626 308.969L795.226 309.4L796.576 310.862L796.311 312.547L792.207 317.406L792.207 318.046L791.386 318.227L790.997 320.065L789.258 322.139L788.701 324.311L787.867 325.007L787.588 327.736L786.086 329.768L785.849 331.537L781.189 341.547L781.203 345.125L780.034 351.139L780.02 356.193L779.199 359.075L780.173 364.114L781.383 365.493L780.632 369.641L780.284 370.045L779.867 369.321L778.476 370.184L777.46 369.976L777.293 370.727L775.359 370.741L774.914 371.827L772.897 365.298L771.992 365.896L771.005 364.379L771.464 363.39L771.06 362.569L770.462 364.504L770.991 366.147L771.798 367.845L773.008 368.388L773.078 371.215L772.535 371.897L770.907 369.572L770.462 367.289L769.655 366.76L769.864 365.771L768.973 363.989L769.14 361.594L768.5 361.344L768.445 363.432L767.735 362.75L768.153 360.884L769.78 358.977L770.726 359.812L770.601 358.323L767.721 357.668L767.694 355.218L766.817 355.427L767.081 357.724L766.108 356.276L765.468 356.443L765.885 358.81L764.633 358.587L765.801 360.341L766.636 360.564L765.982 359.353L766.525 358.726L767.332 359.673L767.234 361.58L766.4 361.191L766.038 361.664L766.72 362.318L766.594 364.643L765.913 363.989L766.4 363.585L766.094 362.806L764.16 362.123L763.826 356.638L763.325 355.691L763.186 356.61L762.337 356.234L761.558 353.088L761.336 354.508L760.821 354.605L761.155 357.808L760.362 358.601L760.195 357.265L759.263 357L759.736 355.385L759.068 355.469L758.525 354.313L759.263 350.819L758.873 349.092L759.652 347.422L757.955 347.505L757.231 351.236L756.355 351.195L756.897 350.15L756.564 347.7L755.798 348.354L755.214 347.965L754.616 350.568L754.157 350.22L753.322 350.888L752.404 350.248L751.611 350.93L751.221 348.981L751.819 346.433L751.166 345.612L751.416 344.637L750.609 344.359L751.193 341.435L751.625 340.753L752.432 340.809L751.986 338.024L751.235 336.716L750.665 338.205L749.246 338.038L749.204 335.045L748.467 335.142L748.355 336.785L747.966 336.033L747.159 336.033L746.561 334.182L746.143 334.794L745.308 333.43L745.851 331.133L744.988 331.411L745.197 330.339L744.209 329.657L743.611 326.385L743.069 326.009L743.041 327.151L742.429 327.262L742.79 322.807L743.138 323.573L745.656 324.534L746.574 325.759L749.273 324.923L750.414 318.965L752.098 320.148L753.099 319.953L753.517 324.436L754.755 322.139L755.131 319.898L755.451 320.886L756.23 320.58L757.009 321.22L759.541 320.803L760.417 319.257L757.816 320.273L757.44 318.923L757.871 318.185L757.384 317.781L755.812 319.41L755.423 317.851L756.341 317.016L755.645 316.765L755.019 315.248L755.311 313.925L757.009 308.551L758.706 306.936L760.014 304.235L761.558 304.639L762.88 303.595L764.605 303.205L764.605 302.23L763.339 301.882L758.803 303.08L757.802 304.277L758.052 302.801L756.953 302.314L757.704 301.311L757.51 300.086L756.703 300.671L756.327 303.052L754.532 303.288L754.518 299.516L757.482 293.07L758.275 292.972L759.555 290.16L759.026 289.742L756.327 293.028L754.964 293.529L754.546 292.22L752.404 295.506L752.682 292.582L754.852 289.297L753.656 290.41L752.752 290.675L752.446 290.229L751.541 290.772L750.887 293.738L749.997 292.206L748.633 292.012L747.493 290.174L746.797 290.035L747.201 286.902L746.463 284.828L747.27 282.962L748.661 281.709L752.738 274.734L762.727 267.662L766.594 268.079L768.528 267.592L767.805 270.015L768.626 271.616L769.335 272.075L771.339 271.852L769.933 275.096L770.379 275.931L771.645 275.862L773.745 273.175L774.803 272.924L775.178 273.829L776.18 271.128L776.806 271.866L777.975 271.866L777.446 271.142L778.364 269.472L779.185 272.521L780.284 270.558L780.312 271.254L781.411 271.546L782.441 270.878L781.926 268.497L782.482 267.829L783.192 269.012L783.025 270.933L783.721 269.346L785.14 268.734L785.307 267.314L787.533 267.286L787.435 266.604L786.294 266.381L787.435 265.546L789.953 266.506L790.315 265.671L792.263 265.782L792.179 264.585L793.418 264.794L795.059 266.019L795.546 268.233L796.27 268.205L795.741 266.061L794.085 264.376L790.552 263.986L790.148 263.248L793.432 262.413L793.529 261.759L792.305 261.592L792.36 260.534L793.724 260.756L794.044 261.633L795.421 261.647L795.602 260.269L794.433 260.77L792.36 257.888L792.972 255.104L792.569 254.283L798.718 251.554L804.283 253.113L806.092 257.596L808.151 259.74L807.58 257.109L807.97 256.663L807.038 255.619L806.662 253.879L807.094 253.03L809.375 251.582L810.001 252.32L810.683 252.194L810.739 253.781L811.393 254.464L812.311 254.046L811.74 252.835L812.213 249.995L812.992 249.633L812.937 248.936L813.966 248.714L814.509 247.837L820.227 247.071L820.867 247.321L821.284 248.63L824.067 248.463L827.016 249.521L826.933 250.83L828.157 251.025L827.086 251.707L827.197 252.18L828.839 254.074L830.397 253.712L831.83 254.505L831.927 256.385L832.456 256.413L832.553 254.283L834.292 253.378L836.685 253.517L837.451 254.561L839.607 254.296L841.916 255.048L842.974 259.726ZM996.971 215.997L997.402 216.512L999.322 214.841L1000.66 214.591L1003.54 216.637L1006.35 215.663L1007.29 214.215L1005.35 212.739L1005.42 211.611L1008.28 210.553L1009.83 208.2L1012.98 208.465L1013.21 209.05L1012.4 209.328L1015.75 210.929L1017.35 212.781L1019.24 212.447L1019.33 214.925L1021.19 215.314L1020.41 216.818L1022.97 220.438L1023.93 220.619L1024.66 221.593L1021.53 224.531L1022.46 225.213L1022.28 226.536L1024.91 225.018L1024.92 226.508L1026.24 226.16L1026.65 225.311L1027.1 225.965L1027.52 225.157L1028.62 224.865L1028.68 226.424L1027.38 227.301L1028.2 227.733L1028.26 228.68L1027.62 228.986L1028.2 230.434L1030.18 230.044L1030.99 230.629L1033.73 230.42L1037.5 231.882L1037.58 230.935L1040.47 231.631L1040.86 232.606L1042.62 233.469L1042.49 235.877L1042.97 236.685L1044.87 236.866L1045.91 236.351L1047.85 236.755L1048.34 238.216L1050.8 236.838L1050.76 238.745L1051.65 239.748L1051.79 241.224L1052.54 238.439L1055.18 237.13L1055.76 238.272L1056.47 238.119L1056.61 237.228L1057.56 236.643L1059.56 237.005L1060.93 238.564L1060.12 240.346L1061.83 240.917L1062.72 240.11L1064.15 240.848L1066.76 238.968L1068.42 239.08L1069.34 239.831L1069.04 241.474L1070.61 246.389L1071.26 246.876L1072.45 246.862L1073.09 244.384L1074.59 242.63L1075.31 238.787L1078.21 237.089L1080.71 236.671L1081.98 237.047L1082.34 238.189L1085.72 237.506L1086.69 238.258L1089.68 237.214L1091.74 237.52L1092.83 238.356L1094.47 237.715L1097.45 239.191L1098.57 238.203L1100.62 238.272L1101.37 240.472L1107.64 241.098L1111.94 244.454L1113.5 246.792L1113.18 248.867L1114.43 249.591L1114.45 250.746L1115.55 251.707L1114.27 254.352L1115.57 254.686L1114.85 256.19L1115.18 259.448L1112.42 261.021L1111.92 262.942L1112.88 264.265L1110.3 266.45L1110.4 268.915L1105.17 269.806L1101.41 272.535L1101.56 274.386L1098.13 274.679L1092.79 276.795L1090.53 276.015L1090.07 277.059L1086.57 278.034L1084.4 277.644L1083.74 278.465L1084.1 280.136L1083.28 280.512L1081.84 279.816L1081.34 278.702L1078.86 277.755L1072.2 276.822L1070.57 276.112L1063.32 275.848L1062.22 274.86L1058.55 273.467L1053.9 273.384L1052.84 272.688L1052.54 271.323L1051.73 272.103L1048.68 271.699L1046.69 270.237L1041.17 268.024L1040.27 268.455L1035.13 267.133L1033.5 267.954L1033.02 267.244L1031.26 266.882L1030.25 265.365L1029.69 265.754L1027.87 264.515L1025.66 264.418L1021.65 262.859L1019.2 260.826L1016.09 260.937L1014.79 259.949L1012 260.965L1012.15 260.005L1013.89 259.545L1013.47 258.125L1014.61 257.206L1014.54 256.106L1012.41 257.68L1010.26 257.638L1008.71 258.348L1007.32 257.735L1006.12 258.069L1005.04 257.123L1004.65 257.457L1003.98 255.007L1002.15 255.981L998.278 256.148L995.162 254.366L991.239 253.837L989.847 254.171L988.999 253.628L990.014 253.531L990.126 252.695L988.971 252.32L987.58 250.816L982.446 252.333L980.763 253.378L982.696 251.22L981.959 250.705L979.469 252.083L978.578 253.503L977.549 253.28L976.798 254.171L976.074 253.614L974.21 254.45L972.902 254.227L973.18 252.862L976.617 249.897L976.005 248.867L974.864 249.34L974.961 250.245L972.972 250.398L969.786 252.055L968.033 252.083L966.614 251.387L965.835 251.971L964.193 251.053L963.122 251.373L962.551 252.556L961.591 252.431L961.619 253.461L958.419 255.104L957.626 253.948L958.628 252.055L960.256 250.872L959.393 249.869L958.113 250.649L957.571 250.134L957.515 250.83L956.221 250.203L956.235 251.303L954.649 252.417L951.616 251.582L952.186 251.512L952.451 250.134L951.101 250.872L950.433 248.728L949.557 248.658L949.515 250.927L950.239 252.626L954.19 255.995L953.522 258L950.183 259.476L949.362 259.267L946.663 256.232L946.719 255.006L944.785 258.334L945.314 259.67L943.519 261.021L941.084 260.45L939.206 258.96L937.676 255.814L936.493 255.382L937.397 253.252L937.523 251.094L937.064 250.607L936.465 253.879L935.505 254.533L936.591 256.51L935.728 257.958L936.09 259.016L934.072 261.703L932.848 261.452L931.819 261.981L930.246 260.353L931.429 253.656L930.636 252.556L930.692 251.47L931.944 249.66L930.831 249.271L929.384 251.582L928.66 255.424L927.798 254.088L927.186 254.227L926.295 255.619L923.471 256.886L922.776 258.362L920.786 259.211L920.897 260.158L920.007 261.411L919.256 260.854L917.725 257.29L918.24 254.408L917.308 252.779L916.445 247.322L914.845 248.115L915.249 250.802L916.056 251.721L914.094 257.248L912.689 257.819L911.701 260.394L910.157 260.854L909.461 263.415L908.098 262.914L908.39 264.655L906.595 263.443L906.679 262.747L905.9 263.276L906.86 264.209L906.456 265.086L905.288 263.276L904.397 263.276L904.884 264.348L903.395 265.532L903.604 262.733L902.463 261.063L901.253 263.638L902.797 266.019L902.06 266.84L902.116 265.81L901.072 264.599L900.446 264.585L900.098 265.546L899.055 266.116L898.804 265.281L899.945 264.863L900.251 264.084L899.444 261.355L898.512 262.121L898.457 264.126L896.592 265.629L895.799 268.344L894.686 267.369L893.879 268.038L892.377 264.836L892.391 262.065L891.82 261.132L893.754 257.833L894.784 253.405L893.392 253.35L891.292 257.902L890.443 257.666L889.775 256.023L887.8 254.575L887.981 255.675L889.386 256.635L890.165 258.473L890.791 258.571L888.481 267.843L887.688 268.052L887.772 267.495L886.353 267.105L886.951 268.929L883.765 272.646L881.72 272.966L879.55 272.437L881.289 269.249L881.553 266.896L877.644 260.199L875.654 258.543L876.141 256.357L874.764 255.563L875.056 258.696L876.67 260.227L878.172 264.599L879.285 265.601L879.188 267.481L878.45 267.829L879.104 269.513L876.141 274.595L874.791 275.723L873.011 275.611L871.16 274.372L870.02 275.402L868.712 272.896L867.849 269.778L869.505 264.947L869.157 261.647L867.766 258.946L868.865 263.248L868.726 265.309L867.668 265.949L867.613 268.901L865.373 267.717L867.084 269.486L866.889 276.224L865.707 277.519L864.079 277.393L863.008 278.187L856.956 279.621L858.208 276.53L857.039 276.001L856.204 277.811L856.664 278.131L853.909 279.161L853.464 280.025L852.685 279.579L850.584 275.221L848.302 272.883L848.72 271.407L851.335 268.734L852.086 263.75L853.505 261.355L853.478 260.408L851.78 263.527L851.433 266.158L847.662 269.764L847.078 266.283L843.363 263.262L843.002 261.48L843.767 259.239L843.391 256.719L842.292 254.422L839.565 253.197L837.158 253.183L836.518 252.292L832.665 252.64L830.675 251.707L831.204 250.649L830.258 249.452L830.828 248.38L833.152 248.031L834.543 249.479L836.852 248.644L839.496 249.145L840.191 248.561L836.95 247.99L836.95 245.901L841.443 244.885L846.299 246.152L847.662 245.623L849.707 247.252L853.283 247.823L854.646 249.215L855.356 248.839L856.038 249.298L856.204 248.769L854.799 248.616L852.184 246.194L850.18 246.194L850.306 245.038L852.059 244.676L849.346 244.133L848.26 242.351L841.485 242.254L841.026 240.346L839.774 240.263L839.412 238.731L840.191 238.147L839.871 237.298L840.581 235.474L840.163 232.327L840.65 230.921L842.612 229.821L842.125 231.033L844.003 233.079L847.287 232.745L847.426 231.965L848.414 231.673L852.184 231.464L854.215 231.938L856.789 233.845L858.528 233.775L859.571 236.045L858.778 237.646L860.239 239.414L859.39 236.866L860.281 236.922L860.893 235.251L859.029 231.576L859.975 230.824L869.185 230.183L869.213 231.102L870.813 231.45L871.272 234.722L873.372 236.991L873.428 238.049L872.788 238.189L874.11 239.066L874.305 240.263L873.72 240.959L874.513 241.78L874.569 244.175L877.143 246.249L877.63 246.124L876.934 245.122L875.348 244.286L874.833 241.349L875.153 240.75L876.739 241.363L878.868 240.43L876.837 240.903L875.918 240.319L875.849 238.996L874.569 236.908L875.265 236.657L875.863 234.778L874.972 233.747L875.181 232.842L874.402 231.06L872.844 229.083L873.164 227.761L874.875 227.218L876.378 227.524L875.209 229.111L879.814 231.464L879.285 233.218L880.301 233.372L881.177 232.773L881.595 230.601L880.398 230.211L881.428 228.346L880.426 227.984L878.896 225.533L881.776 223.904L882.763 225.283L885.365 225.77L887.925 228.443L890.916 229.766L891.89 229.571L890.819 227.691L891.946 227.594L892.558 226.424L890.874 224.183L888.829 223.612L889.636 222.498L888.787 220.563L890.86 219.547L892.196 218.015L896.69 218.252L896.69 219.366L897.357 219.728L896.509 220.104L896.634 220.953L897.538 221.691L898.401 221.19L901.74 222.888L903.827 223.139L903.27 223.696L903.618 227.552L905.468 229.32L906.414 228.903L907.291 230.03L907.917 229.988L908.154 228.165L906.178 227.914L904.731 226.41L905.788 223.988L905.594 223.069L904.717 222.86L905.663 222.053L907.249 222.61L907.458 221.76L905.705 220.674L905.649 219.561L904.188 218.405L902.978 218.141L902.714 217.459L901.809 217.584L901.128 216.79L901.183 215.064L902.032 214.298L904.773 214.173L910.254 215.509L910.783 216.874L913.371 216.874L914.47 217.89L915.346 217.793L914.748 215.83L913.788 214.953L912.007 215.287L910.783 214.813L912.355 214.215L911.312 213.56L911.701 213.198L914.442 213.351L915.11 211.068L911.367 209.328L909.392 209.662L908.098 208.562L910.463 206.585L912.397 205.847L912.105 203.55L911.089 203.258L914.094 201.281L916.32 200.696L918.685 201.197L917.781 202.297L919.617 203.16L918.504 203.606L918.463 204.567L920.563 204.942L917.378 211.054L918.741 210.915L919.937 211.583L921.788 209.481L923.763 209.676L926.003 208.576L927.158 209.286L929.453 208.27L929.62 206.404L928.591 205.263L929.426 204.01L934.476 203.745L935.631 204.093L937.091 207.114L938.747 207.936L937.704 208.646L938.302 211.862L941.599 214.744L942.698 213.254L941.404 211.987L942.156 210.706L943.867 209.579L944.493 207.504L943.755 206.822L945.3 204.887L946.58 204.58L950.197 206.028L952.006 206.028L953.606 206.989L953.592 207.504L955.915 207.685L957.334 205.82L955.011 204.692L954.872 203.467L954.343 203.439L954.774 202.785L957.209 202.437L957.056 203.091L958.53 203.425L959.004 204.26L965.501 206.195L966.892 204.692L965.89 203.94L967.768 203.787L968.951 204.497L969.577 203.341L972.846 203.049L973.848 203.495L975.267 206.112L977.131 205.499L978.94 207.031L980.456 205.04L982.223 206.307L983.406 209.467L985.493 209.411L987.343 210.79L988.247 209.885L989.027 209.913L990.585 211.778L992.268 212.488L993.479 212.196L993.59 211.472L993.562 209.69L992.407 208.172L992.95 207.128L996.859 207.031L1000.53 208.34L1001.21 209.941L1003.01 211.709L999.92 211.848L996.442 212.906L994.675 212.614L994.939 213.212L994.23 214.34L995.468 214.604L996.052 215.997L996.971 215.997ZM1183.56 14.07L1183.98 14.6268L1183.54 14.9331L1181.07 14.3066L1177.48 15.1698L1175.52 13.2346L1173.76 13.9446L1172.46 13.0675L1173.35 11.0628L1172.87 9.18327L1173.23 8.06951L1172.92 4.00424L1171.82 2.31966L1172.77 1.81846L1179.39 2.37537L1183.54 4.04603L1185.18 6.35709L1185.8 8.51501L1183.56 14.07ZM1099.52 -76.0481L1100.05 -75.2963L1095.16 -72.4701L1094.97 -68.6276L1094.15 -68.0289L1093.79 -66.5253L1092.91 -66.4836L1089.81 -69.0592L1087.43 -73.7231L1085.15 -75.5608L1084.31 -77.677L1085.4 -79.097L1083.24 -79.5008L1081.71 -81.2828L1081.95 -82.1599L1083.12 -82.6332L1086.65 -82.1599L1087.07 -80.9069L1086.32 -79.4033L1086.86 -79.0274L1089.28 -78.9996L1093.8 -81.0183L1097.78 -80.2108L1099.88 -81.7283L1100.28 -78.9299L1099.59 -78.206L1099.52 -76.0481ZM1094.97 -89.5943L1092.8 -91.5434L1090.88 -90.374L1089.08 -87.4364L1087.12 -87.4781L1086.44 -88.3552L1086.12 -89.7057L1087.83 -91.975L1087.97 -97.5438L1088.83 -99.1031L1090.91 -99.5904L1095.25 -99.1171L1098.41 -97.516L1099.53 -95.3024L1099.06 -92.6572L1097.42 -90.8752L1095.53 -90.7916L1094.97 -89.5943ZM1156.7 -49.6517L1157.53 -48.6771L1157.41 -47.8L1154.04 -45.5446L1151.83 -46.199L1149.72 -45.7535L1147.52 -46.7559L1147.84 -50.1668L1148.3 -50.4035L1148.95 -50.2782L1149.56 -48.8303L1150.81 -49.9162L1152.47 -49.0391L1152.85 -51.6426L1155.13 -51.5033L1157.45 -50.9882L1156.7 -49.6517ZM1174.47 -35.9941L1173.67 -34.755L1174.09 -32.3047L1173.63 -31.2048L1167.83 -27.1535L1167.36 -24.7589L1164.95 -24.745L1161.29 -21.2505L1160.93 -20.1646L1158.15 -18.6332L1157.44 -18.6192L1155.85 -20.5405L1154.84 -21.0278L1154.2 -20.5544L1152.72 -24.1185L1149.42 -26.4713L1147.41 -32.1098L1155.77 -34.2956L1157.67 -38.2077L1159.4 -39.6834L1161 -43.6234L1163.17 -43.5399L1166.84 -41.5072L1168.23 -39.6974L1167.86 -37.5394L1168.47 -36.8712L1169.29 -36.8851L1171.49 -38.862L1174.47 -35.9941ZM1140.12 -73.7927L1139.84 -72.6511L1137.69 -71.5095L1136.87 -59.4111L1132.85 -58.3391L1133.24 -60.4831L1131.57 -61.04L1130.43 -60.7894L1127.79 -58.3391L1126.34 -58.4783L1125.66 -59.2441L1125.63 -61.2767L1120.11 -66.943L1118.94 -72.4005L1119.64 -75.9924L1121.08 -77.7744L1122.74 -77.3985L1125.34 -74.4053L1127.62 -75.4633L1129.56 -74.085L1132.19 -75.5469L1131.39 -77.4264L1131.66 -78.0528L1135.39 -78.3034L1137.11 -77.8301L1137.56 -75.6304L1139.71 -75.5051L1140.12 -73.7927ZM1151.59 -58.9377L1150.8 -59.7313L1151.33 -60.7337L1156.59 -59.5643L1153.15 -58.2695L1151.59 -58.9377ZM1192.72 -32.792L1192.77 -31.2605L1194.32 -29.9936L1197.73 -20.3177L1197.16 -17.3523L1197.49 -15.9322L1195.79 -11.1709L1194.68 -10.9203L1191.3 -14.4147L1189.67 -18.0484L1187.82 -16.9764L1186.51 -18.6192L1183.9 -18.3686L1181.03 -19.1483L1178.1 -17.408L1179.85 -15.7652L1180.6 -13.2035L1180.31 -12.1594L1178.12 -11.4493L1176.69 -9.37492L1173.46 -14.721L1172.67 -14.6793L1171.24 -11.1848L1169.3 -9.97356L1167.86 -12.3682L1167.2 -15.8348L1167.48 -17.3663L1166.27 -20.9164L1174.84 -31.4137L1177.11 -32.8755L1177.69 -34.9081L1179.38 -36.8155L1180.21 -41.7161L1184.04 -39.2797L1185.36 -39.1822L1186.71 -36.7459L1187.93 -36.9964L1192.72 -32.792ZM1151.29 -62.1955L1151 -63.546L1153.86 -65.8292L1156.89 -66.4696L1158.69 -67.5138L1159.16 -66.0102L1157.56 -62.0702L1154.78 -60.678L1151.29 -62.1955ZM1156.8 -70.9108L1157.76 -69.5882L1157.38 -68.015L1156.84 -67.5556L1154.36 -67.9175L1151.65 -66.233L1151.02 -67.1101L1150.93 -70.4374L1149.24 -72.9017L1152.19 -75.7974L1154.31 -76.4379L1155.56 -80.4753L1158.48 -81.7283L1159.8 -80.35L1161.21 -77.2175L1160.19 -76.229L1158.91 -76.6746L1157.19 -76.1177L1158.88 -72.7764L1158.44 -71.6069L1156.75 -71.4538L1156.8 -70.9108ZM1199.7 -43.3728L1200.26 -42.5096L1201.75 -42.2451L1201.08 -41.0478L1194.17 -37.8875L1192.73 -39.0709L1192.91 -40.2821L1191.79 -40.7693L1190.67 -40.4352L1190.24 -45.5168L1191.62 -47.5633L1192.41 -47.0482L1193.78 -47.438L1198.42 -44.5979L1199.77 -44.6954L1199.7 -43.3728ZM1154.7 -88.1046L1150.87 -83.7192L1149.92 -80.1829L1146.01 -78.6933L1145.79 -80.9208L1146.67 -83.8027L1150.13 -86.434L1151.87 -86.8377L1151.09 -91.2928L1152.73 -90.7081L1153.74 -92.0725L1154.26 -91.9611L1154.84 -90.5271L1154.7 -88.1046ZM1194.28 -66.038L1195.54 -59.2022L1194.1 -55.4433L1190.13 -53.4803L1187.13 -54.2321L1185.69 -56.028L1183.15 -56.4874L1182.92 -57.3784L1184.29 -59.3833L1180.06 -60.4692L1176.84 -65.8014L1176.86 -67.0683L1182.02 -68.5858L1182.01 -69.6021L1178.9 -71.4816L1178.83 -72.1081L1180.71 -72.4562L1184 -70.6463L1186.04 -71.3006L1187.9 -70.8273L1194.28 -66.038ZM1110.91 -158.871L1111.33 -153.664L1113.84 -152.634L1114.2 -151.826L1115.88 -151.562L1116.87 -148.207L1116.44 -145.798L1114.89 -143.946L1112.88 -144.963L1112.28 -144.336L1112.69 -142.248L1111.82 -140.229L1110.52 -139.519L1111.07 -137.862L1110.77 -136.345L1107.71 -135.231L1107.09 -135.607L1106.98 -136.804L1106 -137.417L1106.93 -138.907L1106.75 -139.811L1104.86 -141.037L1104.04 -142.498L1104.33 -145.325L1107.49 -148.151L1105.68 -149.014L1108.1 -151.91L1107.89 -153.594L1106.81 -154.569L1104.63 -154.694L1103.85 -152.467L1103.03 -154.597L1102.34 -154.583L1101.13 -153.038L1101.52 -152.091L1099.78 -150.072L1097.64 -153.608L1095.15 -151.061L1095.32 -150.225L1094.47 -149.209L1094.62 -147.747L1092.84 -145.993L1091.64 -147.441L1091.12 -150.002L1086.86 -149.808L1084.09 -147.984L1082.66 -149.891L1082.45 -151.604L1080.61 -151.214L1078.82 -148.415L1078.4 -150.058L1077.12 -150.949L1074.87 -148.527L1072.95 -148.61L1071.85 -149.71L1071.11 -151.896L1075.44 -154.75L1077.51 -157.381L1075.98 -158.718L1074.21 -158.648L1074.05 -160.04L1073.35 -160.542L1070.87 -159.233L1069.69 -159.748L1070.78 -163.618L1070.25 -165.985L1068.44 -168.686L1068.7 -170.593L1068.24 -171.693L1070.89 -171.721L1073.56 -169.605L1074.89 -169.744L1077.91 -168.589L1084.69 -163.618L1088.6 -162.658L1091.32 -162.825L1091.66 -163.437L1097.45 -160.625L1100.58 -161.391L1103.68 -160.207L1104.47 -162.727L1106.18 -163.883L1107.44 -162.129L1109.69 -162.184L1110.91 -158.871ZM1254.8 -13.83L1251.78 -9.24961L1247.88 -5.4628L1244.82 -3.09603L1243.32 -3.26311L1241.33 -2.386L1239.88 -1.10517L1239.48 0.161741L1235.83 -0.116708L1233.2 -1.82913L1229.49 0.52373L1227.82 3.2803L1225.91 2.93224L1223.2 1.10844L1224.01 2.69558L1219.31 4.81176L1217.75 4.17132L1216.19 4.39406L1213.95 0.287034L1212.93 -2.7619L1213.73 -5.19827L1213.85 -8.58137L1211.81 -9.79257L1211.21 -8.91551L1210.14 -8.81803L1209.32 -9.58375L1203.03 -11.0595L1205.66 -16.9207L1205.32 -18.3965L1205.78 -20.7493L1209.23 -21.5846L1209.83 -23.8818L1213.16 -26.8194L1213.41 -28.0167L1214.9 -27.5572L1215.59 -29.0608L1219.67 -31.9706L1222.17 -32.9451L1224.76 -33.0286L1226.01 -35.8131L1226.39 -36.1333L1226.65 -35.2005L1227.32 -36.3143L1229.98 -36.1611L1231.17 -35.1866L1234.22 -34.393L1235.37 -31.0935L1233.51 -31.3162L1231.27 -33.0286L1230.77 -32.5274L1234.26 -30.286L1234.21 -27.7243L1237.98 -26.4852L1238.17 -25.1487L1238.69 -25.6638L1239.88 -25.4689L1242.36 -23.7425L1245.64 -22.7959L1246.2 -20.9024L1251.67 -21.4176L1255.8 -16.7815L1254.8 -13.83ZM1187.47 -82.7864L1187.35 -81.9093L1188.36 -80.2804L1188.39 -76.7442L1189.66 -75.0039L1189.42 -71.6208L1181.37 -75.3937L1179.49 -77.9972L1175.88 -78.0946L1175.22 -79.0135L1174.94 -82.2713L1177.26 -84.1786L1177.44 -85.1392L1175.63 -87.4782L1173 -88.8007L1172.45 -92.866L1173.64 -94.3139L1176.32 -94.7873L1179.07 -93.8405L1179.6 -93.4508L1179.72 -91.6826L1182.08 -91.3903L1183.81 -89.9563L1184.07 -89.0931L1182.47 -88.2439L1182.56 -87.6452L1184.07 -87.0048L1186.26 -88.1742L1187.5 -87.1858L1188.28 -85.8771L1188.27 -83.8027L1187.47 -82.7864ZM1224.94 -48.9695L1223.19 -44.5701L1218.65 -41.3123L1216.23 -43.2614L1211.92 -43.4563L1210.54 -45.5864L1210.64 -48.4683L1209.43 -49.2062L1208.56 -52.6032L1209.73 -54.3573L1212.04 -53.1879L1217.01 -54.6775L1219.05 -54.1067L1224.06 -50.7376L1224.94 -48.9695ZM1144.96 -126.808L1142.4 -127.309L1140.57 -128.688L1140.2 -127.393L1139.45 -127.476L1137.28 -129.37L1136.41 -128.924L1137.74 -127.824L1137.29 -127.379L1134.59 -127.741L1133.8 -127.003L1133.28 -127.852L1130.96 -128.005L1131.49 -127.142L1131.06 -125.04L1131.62 -123.982L1136.55 -124.581L1136.21 -122.673L1138.92 -123.773L1140.46 -123.035L1139.75 -120.989L1140.84 -119.819L1142.17 -121.156L1144.5 -120.641L1144.33 -115.851L1143.33 -114.71L1144.22 -113.68L1144.6 -109.935L1143.73 -109.461L1135.62 -108.918L1132.44 -110.464L1130.02 -108.709L1126.23 -107.818L1123.06 -108.821L1116.9 -113.902L1113.22 -114.515L1111 -115.462L1109.49 -116.965L1108.19 -116.269L1107.89 -113.359L1104.89 -110.074L1103.19 -109.489L1102.65 -109.976L1100.98 -109.781L1099.74 -110.324L1098.29 -112.301L1097.22 -115.824L1095.32 -117.341L1095.32 -119.04L1093.77 -119.443L1091.55 -116.659L1090.23 -117.258L1089.49 -118.385L1087.82 -118.441L1085.45 -115.991L1086.78 -115.865L1087.11 -114.668L1089.49 -112.9L1089.31 -111.327L1087.93 -110.478L1087.9 -109.197L1085.02 -109.266L1085.27 -107.15L1086.05 -105.953L1085.18 -104.129L1083.7 -104.296L1082.52 -105.647L1081.74 -105.145L1081.71 -104.366L1080.75 -105.41L1079.94 -108.417L1080.82 -110.213L1080.31 -111.48L1078.33 -110.728L1076.54 -107.345L1072.15 -106.19L1073.64 -109.378L1072.5 -111.048L1069.79 -111.369L1069.15 -110.812L1069.37 -110.032L1068.22 -109.322L1064.21 -111.41L1065.49 -113.638L1072.25 -116.422L1074.48 -115.253L1077.04 -115.169L1074.03 -118.65L1074.98 -119.179L1076.99 -118.525L1078.12 -119.624L1077.12 -121.211L1075.01 -121.518L1074.17 -122.799L1073.2 -122.353L1072.96 -123.731L1072.06 -123.244L1071.05 -124.553L1070.41 -124.386L1070.02 -121.991L1069.36 -121.546L1068.3 -123.077L1065.46 -122.826L1064.72 -123.592L1064.54 -126.836L1067.17 -128.214L1068.2 -134.507L1070.19 -136.275L1073.18 -135.565L1075.87 -136.331L1078.5 -135.37L1078.57 -133.352L1075.17 -130.929L1075.44 -130.247L1077.5 -129.718L1078.41 -128.883L1077.38 -126.85L1079.55 -126.21L1079.35 -124.97L1082.34 -122.395L1081.92 -125.207L1082.42 -125.959L1084.79 -123.704L1085.33 -123.801L1082.49 -128.562L1082.43 -130.289L1083.37 -132.475L1085.72 -131.514L1087.16 -129.147L1089.22 -128.646L1090.56 -125.193L1091.49 -126.07L1091.19 -128.688L1092.65 -129.175L1092.76 -129.982L1090.09 -133.936L1085.45 -136.54L1085.15 -138.016L1091.34 -137.083L1094.98 -137.194L1096.81 -136.568L1096.97 -134.813L1099.89 -134.479L1101.34 -132.697L1100.73 -132.196L1101.15 -130.971L1099.53 -129.829L1099.69 -129.175L1100.79 -128.827L1100.13 -126.502L1101.69 -125.5L1103.6 -127.769L1105 -126.363L1105.97 -124.219L1106.96 -124.066L1107.82 -124.567L1108.42 -125.973L1109.87 -126.112L1111.21 -127.811L1112.76 -127.282L1112.92 -126.627L1113.89 -126.627L1114.45 -130.163L1116.81 -129.551L1117.42 -128.131L1118.09 -127.964L1120.57 -128.214L1120.74 -129.356L1121.89 -129.732L1121.21 -130.414L1122.5 -131.013L1123 -132.182L1117.8 -134.744L1119.02 -135.997L1122.24 -136.679L1122.03 -137.333L1120.26 -137.264L1119.86 -138.141L1118.18 -137.124L1117.59 -137.459L1118.18 -139.77L1120.79 -139.074L1122.06 -139.839L1121.97 -140.786L1120.67 -141.816L1126.56 -140.87L1127.75 -139.909L1129.32 -140.368L1131.56 -139.965L1136.82 -142.053L1143.39 -140.438L1143.4 -138.558L1144.36 -136.957L1143.08 -136.735L1140.49 -138.377L1136.39 -139.338L1137.17 -138.586L1136.29 -138.127L1137.08 -137.166L1136.16 -135.523L1137.39 -134.883L1139.03 -135.746L1143.86 -133.533L1149.97 -134.215L1146.31 -127.713L1144.96 -126.808ZM1232.44 -67.5556L1232.93 -66.9291L1232.22 -65.1052L1232.83 -60.8729L1232.24 -58.7846L1228.45 -57.3506L1226.87 -55.9167L1225.18 -56.3065L1223.51 -58.534L1225.18 -65.6343L1224.98 -68.2795L1225.57 -70.0337L1226.21 -70.3956L1228.15 -69.7552L1227.46 -69.0591L1228.5 -68.4883L1230.85 -70.34L1232.44 -67.5556ZM1198.67 -101.762L1198.9 -101.122L1200.18 -100.732L1199.62 -98.4488L1200.63 -96.987L1199.2 -91.2928L1201.53 -89.5247L1206.2 -87.325L1207.49 -84.0533L1206.83 -81.8257L1208.26 -76.8277L1206.41 -73.5838L1206.49 -71.4676L1205.48 -69.2819L1206.13 -65.4255L1207.58 -63.1144L1208.91 -58.8821L1208.06 -56.1115L1208.15 -53.7448L1207.19 -52.6171L1201.4 -51.4198L1195.47 -53.5081L1194.82 -54.3016L1194.76 -56.1672L1196.75 -59.5225L1195.95 -62.8638L1197 -64.0611L1197.39 -65.6204L1195.31 -69.3515L1194.62 -72.0385L1194.04 -72.8181L1192.65 -73.1244L1192.22 -76.062L1192.55 -78.9578L1194.61 -79.1805L1194.75 -80.0994L1193.19 -82.132L1193.14 -85.8631L1194.88 -88.9956L1194.05 -89.9841L1192.55 -89.2323L1190.62 -91.446L1190.14 -94.9543L1191.66 -95.1353L1192.09 -96.9591L1191.73 -97.7944L1189.41 -98.588L1189.02 -100.648L1190.94 -103.182L1195.26 -103.196L1195.28 -103.99L1196.59 -105.438L1198.07 -105.786L1199.17 -104.658L1198.67 -101.762ZM1214.34 -86.9769L1217.62 -83.8027L1217.94 -82.2852L1217.34 -78.735L1220.25 -76.2151L1220.27 -74.4748L1221.96 -72.1081L1222.1 -71.3841L1220.77 -70.4931L1220.96 -67.8758L1219.93 -64.4509L1220.68 -63.3928L1220.25 -61.2627L1221.82 -60.1072L1222 -57.281L1221.42 -56.4178L1217.23 -57.1279L1215.65 -56.8216L1214.83 -57.3367L1213.78 -55.9584L1211.25 -55.9027L1209.02 -60.1072L1208.7 -63.7687L1211.39 -66.6785L1211.57 -69.0592L1210.79 -71.7043L1211.33 -74.3635L1212.88 -75.7975L1213.63 -79.1945L1212.13 -83.1762L1211.26 -89.5247L1211.6 -91.1675L1213.3 -91.3903L1212.99 -89.2462L1214.34 -86.9769ZM1263.03 -41.9527L1265.95 -38.4444L1266.75 -35.7017L1266.13 -35.2005L1264.21 -35.5068L1262.39 -32.4578L1259.86 -31.0099L1251.4 -29.0608L1249.29 -29.0608L1245.09 -31.2884L1242.47 -35.8548L1242.37 -37.9571L1243.21 -39.4885L1242.27 -42.3426L1242.71 -44.3891L1246.25 -43.7069L1248.56 -44.4865L1250.97 -44.5005L1253.36 -43.331L1256.03 -43.6094L1263.03 -41.9527ZM1164.16 -150.587L1163.73 -149.153L1164.5 -146.369L1162.58 -143.668L1159.8 -143.111L1158.15 -143.932L1157.09 -143.376L1156.53 -141.761L1154.96 -143.334L1152.87 -143.946L1150.56 -143.027L1151.02 -144.823L1153.54 -145.394L1154.63 -146.285L1154.84 -147.58L1156.66 -149.07L1157.02 -151.019L1157.81 -151.924L1160.15 -151.116L1160.69 -151.492L1160.34 -152.286L1161.11 -152.411L1164.16 -150.587ZM1302.27 -12.7162L1304.03 -10.1685L1304.14 -8.21937L1305.31 -7.18915L1304.7 -2.48347L1303.52 0.509821L1302.92 1.60966L1302.38 1.34513L1299.15 6.94184L1294.54 7.0393L1295.34 8.36187L1293.46 10.7983L1293.19 12.3436L1289.92 14.6408L1279.09 17.634L1276.5 16.8822L1269.93 16.4646L1268.05 15.4483L1266.96 13.9029L1261.35 11.6614L1261.13 11.2159L1262.03 10.4502L1253.29 8.11129L1252.19 6.67731L1253.56 5.3408L1255.55 -1.91265L1255.42 -6.5209L1256.83 -8.20545L1263.59 -9.20787L1269 -9.05473L1272.14 -10.1963L1274.62 -9.77866L1276.15 -9.05472L1281.08 -3.65294L1283.3 -3.04033L1286.59 -4.76668L1289.76 -9.24961L1294.21 -11.9505L1294.89 -13.0503L1298.68 -13.5515L1302.27 -12.7162ZM1237.99 -81.4081L1238.43 -79.1805L1237.38 -77.2036L1236.42 -78.387L1234.53 -78.025L1230.24 -75.4076L1228.74 -75.1849L1228.15 -76.1316L1227.39 -75.8949L1225.7 -77.2732L1224.02 -79.459L1223.65 -84.1229L1222.94 -86.0581L1225.04 -86.6846L1228.35 -85.2924L1230.99 -85.4316L1237.99 -81.4081ZM1267.9 -58.4644L1267.16 -56.919L1263.84 -57.4063L1263.27 -61.2349L1261.5 -64.256L1261.7 -66.5671L1264.76 -65.7874L1266.84 -63.3093L1268.19 -60.5666L1267.9 -58.4644ZM1237.63 -106.189L1238.38 -103.99L1237.78 -102.389L1239.81 -101.247L1239.94 -95.6087L1241.34 -95.0378L1239.42 -91.084L1241.05 -90.1233L1242.68 -91.0561L1242.07 -89.107L1242.86 -85.529L1238.96 -87.1718L1237.99 -88.5362L1235.35 -89.2044L1233.79 -90.2625L1225.32 -90.6941L1223.92 -90.0816L1219.72 -90.9447L1218.39 -92.9774L1221.34 -94.6202L1220.85 -96.973L1215.66 -98.5462L1213.24 -102.834L1213.6 -103.892L1215.59 -104.686L1217.16 -106.454L1217.18 -107.108L1215.91 -107.791L1216.23 -108.612L1219.29 -109.642L1219.67 -111.522L1223.02 -110.979L1222.89 -110.269L1221.7 -109.684L1222.02 -108.306L1223.66 -106.83L1224.01 -103.141L1225.16 -102.904L1225.62 -101.888L1224.98 -99.9384L1226.57 -96.6528L1227.37 -96.263L1228.53 -99.7575L1228.4 -101.832L1231.62 -103.377L1233.98 -108.278L1237.63 -106.189ZM1262.14 -83.5521L1262.82 -82.4801L1264.31 -81.7422L1264.34 -81.0182L1263.13 -81.422L1262.04 -80.531L1262.11 -78.9299L1259.67 -74.2521L1258.91 -73.6395L1256.94 -73.4725L1253.11 -75.3241L1251.23 -80.1272L1252.12 -83.2458L1254.5 -84.6519L1258.98 -84.9861L1261.18 -84.7355L1262.14 -83.5521ZM1258.15 -106.482L1259.18 -104.032L1257.01 -102.277L1257.4 -101.052L1256.44 -99.8688L1256.92 -97.4881L1258.45 -96.3744L1259.44 -93.938L1258.72 -89.3715L1257.81 -87.8262L1256.45 -87.0744L1252.07 -87.7009L1249.97 -88.9956L1247.45 -92.3509L1247.51 -94.4113L1246.49 -96.4301L1247.46 -98.6576L1247.35 -100.607L1246.42 -100.704L1245.82 -102.082L1244.64 -102.514L1244.68 -103.837L1242.62 -106.176L1242.55 -106.969L1244.71 -109.461L1246.1 -108.682L1248.79 -111.536L1250.39 -111.355L1252.04 -108.222L1253.86 -108.069L1254.16 -107.275L1256.16 -107.944L1258.15 -106.482ZM1324.15 -60.6502L1326.13 -57.81L1326.65 -55.5825L1326.57 -53.4106L1325.08 -50.3617L1321.52 -48.5796L1318.53 -48.4543L1316.36 -49.1226L1314.16 -52.631L1312.2 -54.3713L1310.97 -57.462L1310.88 -59.5921L1313.09 -62.641L1310.77 -65.7735L1310.57 -68.3352L1312.88 -69.087L1314.93 -68.4326L1317.29 -65.871L1319.78 -64.8825L1318.93 -64.1446L1318.04 -64.5623L1317.29 -64.1725L1324.15 -60.6502ZM1292.79 -112.608L1293.92 -110.004L1293.25 -107.498L1291.09 -105.619L1289.67 -105.368L1288.34 -103.224L1285.6 -102.598L1281.22 -105.702L1280.34 -105.577L1279.78 -107.303L1277.6 -108.988L1275.73 -108.709L1274.96 -109.378L1272.27 -109.503L1271.53 -110.185L1271.62 -113.721L1273.8 -116.13L1276.28 -116.631L1277.74 -121.128L1282.34 -119.694L1284.17 -117.23L1290.31 -115.002L1292.79 -112.608Z" fill="#EF6868" stroke="white" stroke-width="0.343187"/>
<path d="M396.69 300.462L394.673 299.752L395.076 300.935L394.158 302.383L394.436 303.497L393.755 304.096L393.768 305.251L389.817 305.418L390.123 307.312L390.986 307.674L389.525 309.581L389.873 310.653L390.958 311.154L389.609 312.811L391.376 315.108L390.263 315.916L390.763 317.002L393.101 317.391L393.268 318.255L394.339 318.074L394.84 316.737L395.549 318.756L395.104 319.758L395.716 320.315L395.549 321.652L395.257 322.779L394.255 323.169L393.977 325.063L395.521 325.16L395.535 328.905L394.492 328.919L393.671 329.74L394.13 330.896L392.669 332.024L392.53 332.831L394.228 334.641L393.894 335.142L394.923 336.924L393.796 337.523L391.765 341.115L385.574 342.215L384.336 340.001L383.028 339.723L381.442 337.551L380.273 344.428L378.604 346.35L378.576 348.494L378.006 349.371L376.1 349.635L376.086 350.317L377.88 350.972L376.948 351.654L374.055 352.044L371.842 354.814L370.507 362.304L372.232 369.46L375.557 371.785L376.169 373.15L375.515 376.087L371.968 379.916L368.74 381.614L367.989 380.946L367.224 381.907L367.015 383.898L368.587 385.025L368.573 385.902L366.931 389.801L365.735 390.803L365.944 392.627L364.483 394.2L361.046 395.69L361.019 397.305L360.518 397.694L357.61 397.931L354.577 400.771L350.083 397.388L349.666 396.052L350.069 394.478L349.443 393.935L349.123 391.945L347.37 391.248L345.492 391.764L344.282 389.049L338.522 390.357L326.182 386.891L326.224 385.401L323.705 385.693L323.399 385.22L323.093 383.466L325.333 381.28L322.245 380.528L320.519 375.21L315.525 374.277L313.299 375.837L313.09 370.783L311.908 370.351L308.805 366.356L304.131 364.991L303.588 366.147L303.922 368.848L305.786 369.349L306.496 371.228L302.572 372.899L301.821 372.927L301.223 369.989L300.054 368.514L299.15 369.418L297.508 368.889L294.601 369.015L292.138 370.226L290.747 369.864L290.093 368.82L286.017 369.419L284.611 367.817L268.96 332.135L267.847 330.882L267.388 328.557L265.746 326.914L266.247 325.021L265.468 323.127L265.704 320.719L269.948 320.065L270.699 319.341L272.299 320.413L278.448 318.881L281.69 319.006L283.401 318.157L288.27 318.018L288.827 317.405L295.561 316.598L297.355 315.721L302.711 316.347L303.045 315.735L307.678 315.47L321.869 309.651L323.246 305.794L323.205 302.244L325.222 299.279L324.818 290.772L323.218 286.805L324.54 275.013L328.811 276.14L335.628 274.247L338.383 272.632L339.496 269.875L340.414 269.736L340.943 268.65L340.303 266.979L340.637 264.557L339.691 262.608L340.066 260.895L341.499 259.768L343.211 256.886L344.115 256.232L346.717 256.051L347.482 253.308L349.082 252.626L348.998 251.818L346.007 248.936L346.035 247.572L347.176 245.4L349.165 242.685L351.113 241.321L352.922 241.683L353.937 242.811L354.814 242.908L354.981 241.488L356.998 240.834L357.262 240.207L355.412 237.659L355.481 236.615L359.043 236.225L361.937 232.801L365.665 231.77L365.749 228.819L369.964 230.03L370.563 231.798L372.274 230.141L375.891 225.464L379.953 218.085L381.345 211.903L383.905 207.782L386.144 202.005L390.763 204.873L393.908 208.492L398.346 212.154L400.238 213.045L403.925 217.291L407.152 219.769L406.568 220.159L408.71 222.582L406.276 225.38L407.069 227.427L405.302 231.422L409.503 235.933L410.269 235.78L411.298 234.193L412.286 236.267L412.077 233.163L414.484 235.098L417.364 233.023L418.06 233.135L420.355 236.156L422.442 240.806L419.061 238.119L420.286 240.291L422.651 241.599L422.804 242.783L422.345 242.63L422.011 243.493L422.428 244.718L423.444 246.542L424.487 245.999L425.071 246.583L423.764 247.029L424.585 249.298L421.83 247.628L422.303 250.83L420.16 248.936L413.747 246.166L416.571 248.157L418.324 248.379L419.131 249.103L418.797 249.549L420.828 250.663L420.926 251.15L419.813 251.289L421.705 253.572L421.246 254.255L421.997 255.702L421.023 256.287L422.372 256.413L423.945 257.846L423.792 259.503L422.845 259.782L423.652 260.311L423.263 260.589L423.847 259.977L424.125 260.394L424.084 261.884L423.611 261.995L424.153 262.399L424.473 265.615L423.778 266.729L424.334 266.952L424.237 267.578L423.569 268.246L423.931 269.722L423.555 270.404L422.957 270.028L421.927 270.752L422.178 271.337L421.524 271.407L421.009 272.395L421.983 272.117L422.748 273.439L422.4 274.261L421.232 274.79L420.272 274.247L420.87 275.653L419.938 274.163L418.463 274.052L418.714 274.553L418.018 274.804L417.67 275.959L416.487 276.446L417.378 276.558L417.378 277.532L415.736 277.198L416.307 277.88L415.263 280.289L414.679 280.428L414.707 279.649L413.218 281.166L411.256 281.069L410.45 282.656L409.323 282.224L408.474 280.818L408.07 282.113L406.54 280.247L406.373 282.029L405.942 280.874L404.898 280.331L406.025 283.491L405.051 283.491L403.772 285.329L404.592 285.788L403.619 286.596L404.509 287.013L404.342 288.183L403.827 287.779L403.785 289.742L402.951 289.38L401.893 291.329L402.784 292.554L401.546 293.014L401.726 293.501L400.975 294.002L401.518 294.044L400.766 294.322L401.907 294.239L401.281 294.559L399.083 294.114L399.82 295.214L399.069 297.023L399.57 296.773L399.681 297.664L399.041 298.054L398.902 299.836L396.69 300.462Z" fill="#EF6868" stroke="white" stroke-width="0.343187"/>
<path d="M45.2628 352.726L44.7898 353.311L39.837 353.506L45.2628 352.726ZM71.6269 356.527L71.0287 359.381L72.406 360.982L72.3503 363.014L73.1433 365.312L74.5206 366.606L73.825 367.943L75.9398 368.75L78.2909 371.604L79.724 372.175L78.7779 374.737L79.3205 374.667L78.917 376.658L79.5152 377.953L77.8596 380.222L75.2719 379.86L73.9363 381.447L72.4617 381.614L70.3608 383.995L69.5817 386.501L55.7249 374.083L40.95 355.343L43.4959 355.747L45.3324 354.912L45.9584 356.29L50.1739 356.805L50.8834 357.404L51.0782 356.652L49.4644 355.009L47.5584 354.605L48.407 352.921L47.8227 352.253L47.0158 352.364L46.1672 353.575L45.3741 352.503L48.3653 351.376L50.2574 348.814L51.8712 348.173L53.1372 350.025L54.8485 351.069L55.2936 352.406L57.1857 353.241L60.5248 353.519L67.0914 352.378L67.3558 353.06L65.8254 352.921L64.0029 353.687L57.3249 353.881L58.7579 356.095L59.6622 356.415L59.7596 358.128L61.8464 360.467L64.4202 361.01L68.1488 355.914L68.7331 356.861L69.8321 356.179L71.6269 356.527Z" fill="#EF6868" stroke="white" stroke-width="0.343187"/>
<path d="M569.011 408.694L611.903 418.147L614.922 414.708L616.132 415.696L625.565 416.699L647.672 443.081L661.014 457.212L714.493 509.504L715.231 510.994L717.902 511.634L719.21 513.444L722.535 512.511L741.525 515.866L745.268 512.595L750.499 510.645L755.507 510.618L757.566 511.731L758.665 514.836L759.917 513.36L765.385 512.845L767.792 509.351L775.555 511.411L777.044 510.701L779.061 511.578L782.525 507.583L785.892 507.833L787.798 509.685L789.342 510.284L789.982 512.929L790.831 513.917L793.516 514.572L792.278 515.783L788.633 516.423L780.814 525.194L780.939 528.939L782.72 530.471L784.974 531.027L786.963 532.796L786.226 534.703L784.904 535.719L782.817 536.053L783.04 539.395L781.621 542.068L780.355 542.082L778.713 539.297L777.67 538.977L775.235 539.631L776.724 542.903L775.917 545.465L774.637 546.467L772.62 546.676L768.446 544.95L764.314 545.771L759.709 545.061L755.966 546.133L753.963 545.548L750.318 550.477L745.949 550.143L744.669 548.945L742.346 548.124L740.398 549.321L737.463 548.333L735.473 548.709L732.872 546.077L728.058 546.606L724.635 546.049L721.881 544.49L718.584 546.147L717.067 546.244L715.565 549.419L715.036 547.943L711.906 547.901L709.582 549.252L708.191 549.14L706.8 549.948L705.589 549.627L704.796 551.646L702.403 551.925L700.943 553.108L690.077 549.725L687.614 549.015L684.289 549.085L683.663 549.572L682.147 548.945L674.759 550.825L673.577 551.563L671.977 554.083L668.805 554.333L667.316 553.734L665.313 554.876L660.736 553.665L659.136 554.793L656.437 554.152L657.536 552.551L657.091 551.187L657.995 549.892L656.353 546.133L653.418 545.98L651.526 547.929L650.357 547.038L649.494 547.595L647.602 546.676L646.002 547.832L644.472 546.996L642.816 548.486L642.663 550.922L641.648 550.574L638.935 551.952L636.152 552.454L636.041 555.377L630.407 561.071L629.753 562.505L631.311 564.176L630.267 566.362L628.125 566.362L626.344 567.42L623.715 566.961L621.043 568.408L620.042 568.186L618.831 570.065L614.463 573.629L609.274 576.873L608.314 578.168L606.95 578.001L606.032 579.783L603.987 580.159L602.178 582.915L600.022 583.375L598.825 585.435L598.644 589.765L596.808 591.547L594.387 591.714L591.466 596.225L591.271 597.199L591.897 598.021L591.118 600.221L588.586 602.838L586.235 602.211L584.704 603.798L583.661 604.007L579.237 608.797L576.343 609.771L573.282 613.363L569.4 612.375L567.091 613.126L565.282 611.678L564.086 611.678L551.787 599.705L548.254 595.167L546.375 594.652L543.927 589.779L542.689 590.127L542.229 589.528L540.045 590.489L538.96 589.013L532.992 591.784L530.07 586.939L525.576 588.763L521.361 583.904L517.98 585.477L517.076 584.182L512.846 585.881L503.497 573.1L500.367 575.175L496.346 569.508L500.423 567.267L495.553 560.863L492.159 562.45L489.334 559.15L485.578 560.403L482.03 555.182L474.768 559.665L477.147 564.942L475.951 565.777L477.314 568.589L475.895 569.62L475.283 571.207L472.946 571.819L472.417 568.227L470.831 567.336L458.977 570.483L458.045 569.661L459.297 565.93L457.503 563.438L451.2 564.789L449.948 563.313L446.707 561.266L444.495 560.361L442.742 560.445L441.726 558.872L440.557 558.343L439.709 558.941L439.277 560.542L436.537 559.053L433.225 561.726L433.086 562.645L431.236 564.162L430.944 565.095L428.3 566.877L426.339 566.418L425.601 565.29L425.254 563.967L428.704 561.461L426.714 558.858L427.688 557.549L426.561 555.001L425.24 554.988L425.017 554.319L428.718 551.173L423.988 544.518L430.304 538.253L432.516 535.148L434.13 534.508L438.679 534.578L439.319 533.325L439.138 530.164L441.976 527.547L445.58 521.574L445.455 520.391L448.668 518.066L451.52 517.969L455.847 518.679L457.391 520.252L459.701 520.669L461.189 522.883L472.834 516.576L469.551 510.562L481.223 502.668L482.072 503.155L498.322 492.519L491.199 482.495L487.79 483.678L484.882 480.991L478.191 484.876L477.787 486.95L475.728 488.983L472.653 485.238L469.537 482.592L466.518 484.611L464.375 482.356L466.866 479.335L465.029 477.525L472.125 471.12L475.38 464.466L479.303 465.329L482.67 465.301L485.731 464.354L486.009 462.544L484.242 455.347L486.399 449.903L489.946 449.388L492.145 447.522L492.757 445.88L492.854 440.798L492.117 434.658L490.642 432.57L490.072 429.772L488.124 427.906L487.428 425.706L487.54 423.145L489.39 418.37L493.828 419.414L496.764 421.182L498.85 424.941L500.256 426.236L503.762 426.403L510.954 432.514L513.013 435.16L517.048 438.222L519.413 441.592L517.201 444.112L519.413 447.717L520.971 447.077L522.446 445.378L526.411 449.096L530.404 447.021L533.131 449.305L534.758 452.353L539.461 450.85L541.979 454.456L544.511 459.858L553.86 453.815L552.622 452.409L551.606 449.583L551.885 446.938L554.82 438.292L556.726 434.658L550.02 430.148L558.771 420.973L561.804 416.852L567.634 411.464L569.011 408.694Z" fill="#EF6868" stroke="white" stroke-width="0.343187"/>
<path d="M245.032 327.291L244.614 326.539L243.446 326.038L243.167 326.456L242.667 325.481L241.359 326.595L239.258 325.634L237.992 326.846L237.853 325.537L235.39 324.688L233.999 321.931L242.694 320.831L243.585 321.277L250.054 320.734L251.098 322.084L253.727 320.734L256.412 320.191L258.04 320.901L262.993 321.291L265.664 320.762L265.427 323.17L266.206 325.064L265.775 326.999L267.417 328.642L267.876 330.966L268.989 332.219L284.64 367.902L286.046 369.503L290.122 368.904L290.776 369.949L292.167 370.31L294.63 369.099L297.537 368.974L299.179 369.503L300.083 368.598L301.252 370.074L301.85 373.011L302.601 372.983L306.525 371.313L305.815 369.433L303.951 368.932L303.617 366.231L304.16 365.076L308.834 366.44L311.937 370.436L313.119 370.867L313.328 375.921L315.554 374.362L320.548 375.295L322.274 380.613L325.362 381.365L323.122 383.55L323.428 385.305L323.734 385.778L326.253 385.486L326.211 386.975L325.154 388.757L323.15 389.704L320.646 389.481L320.02 390.219L320.173 391.57L318.629 392.252L317.265 392.363L316.667 390.651L315.846 390.247L313.231 390.581L312.034 393.644L309.975 396.623L303.979 400.563L302.142 400.87L299.652 402.972L299.819 404.615L298.998 405.38L297.843 405.366L299.958 410.016L298.428 410.156L294.838 413.553L294.477 414.444L295.979 416.783L294.435 418.69L294.115 416.671L292.264 418.634L289.134 418.954L289.009 420.723L286.922 421.085L285.169 422.198L284.056 421.057L282.039 421.098L281.441 419.971L280.175 420.291L280.286 418.537L276.905 418.941L276.14 419.79L275.597 419.581L275.25 420.514L273.636 419.038L272.231 414.792L270.324 413.413L268.975 413.789L268.516 412.857L268.363 411.088L267.626 410.072L269.17 404.489L267.194 403.292L266.624 402.053L264.384 402.262L263.716 398.642L264.092 397.069L261.671 397.626L258.749 397.292L257.289 398.197L256.44 399.853L254.715 400.354L253.421 399.784L252.21 394.925L253.963 392.28L252.976 386.669L252.308 386.279L249.818 387.825L249.15 387.435L248.691 386.864L248.927 384.706L247.675 383.147L245.519 386.391L244.225 386.21L243.167 387.24L240.037 387.95L238.215 387.156L237.881 385.151L236.823 384.038L233.331 385.667L229.965 385.36L227.516 386.947L226.723 386.627L226.027 385.012L223.314 384.33L222.577 381.198L222.062 381.1L221.2 381.351L220.949 382.381L219.419 382.743L218.556 384.608L216.956 386.154L214.897 385.792L214.23 384.316L212.532 383.815L211.503 382.534L211.169 381.114L211.99 379.123L210.181 375.643L211.628 373.749L211.6 368.598L210.376 367.568L206.856 361.4L205.826 360.565L206.759 356.987L206.091 355.038L204.811 353.367L202.056 353.339L202.307 352.059L203.336 351.446L209.625 348.55L211.864 348.787L212.769 349.664L213.548 349.024L215.009 349.204L215.37 345.557L218.069 343.858L219.294 340.768L220.657 339.904L222.118 339.863L222.758 340.977L221.311 343.148L222.201 345.125L223.287 345.376L226.612 342.856L227.905 343.26L228.1 346.49L231.133 348.132L233.401 347.896L233.804 347.464L233.457 346.309L234.18 346.699L235.029 346.1L236.267 346.197L237.477 347.047L240.914 352.964L239.342 354.147L239.648 355.985L240.385 356.583L239.94 357.029L239.745 361.484L240.023 364.686L241.067 366.148L243.126 367.094L244.893 366.412L246.02 367.568L247.898 367.47L248.426 366.691L247.494 362.806L250.249 360.189L249.818 357.168L251.682 355.943L249.72 352.838L247.021 345.738L245.839 344.972L242.667 345.529L239.995 342.912L239.202 341.311L240.065 339.863L239.662 337.538L240.51 335.742L239.411 336.062L238.604 333.834L240.788 328.196L241.317 328.697L240.594 330.813L241.234 333.097L242.333 330.883L243.348 330.368L243.696 329.351L242.597 329.644L242.959 328.168L244.044 327.556L243.682 328.781L244.308 329.881L244.976 328.043L246.228 328.906L246.437 328.168L247.606 327.75L248.023 326.275L247.578 325.968L247.133 326.748L246.632 326.386L245.602 327.639L245.032 327.291ZM203.35 351.46L203.336 351.474L203.35 351.46Z" fill="#EF6868" stroke="white" stroke-width="0.343187"/>
<path d="M501.785 137.378L503.093 137.851L503.789 139.745L503.371 141.304L504.025 142.293L504.331 145.857L503.232 146.706L504.29 148.766L505.096 148.683L506.849 151.384L506.557 152.149L507.531 153.82L507.309 154.683L504.749 156.744L501.618 157.231L500.018 156.688L497.695 152.303L497.778 150.743L496.86 150.465L495.358 148.237L495.97 147.012L497.166 146.706L498.071 144.353L497.292 144.27L497.125 145.606L495.149 146.664L493.994 146.678L493.048 145.898L493.104 147.764L491.198 148.78L493.73 148.697L494.245 150.743L495.511 152.428L495.483 153.096L494.189 153.528L495.01 154.934L494.412 155.56L493.048 154.948L489.779 155.185L491.935 156.229L493.313 155.407L493.772 156.145L494.718 155.839L494.426 156.326L495.093 156.549L493.73 158.108L495.539 157.607L496.888 158.985L497.305 160.127L495.386 160.6L494.189 161.63L497.111 160.739L498.961 162.118L495.246 162.438L495.135 163.051L491.991 164.192L492.812 164.846L495.483 163.649L499.671 165.445L500.477 165.195L501.563 168.062L499.337 168.174L500.297 168.689L499.977 169.26L497.361 170.151L495.984 168.689L495.761 169.274L494.801 169.26L497.639 172.406L494.44 170.763L496.067 173.283L494.606 174.717L493.577 174.272L491.768 174.829L488.833 173.172L487.4 173.074L488.777 173.868L489.723 175.372L490.739 175.107L492.408 176.416L493.187 175.469L493.911 175.692L496.624 174.592L497.681 173.116L499.017 172.949L498.098 172.559L499.476 171.515L501.284 173.047L501.062 173.576L502.286 173.743L502.801 174.731L503.691 174.843L504.609 176.625L507.642 179.743L507.044 180.648L507.475 181.971L510.536 186.899L509.994 187.804L511.176 187.846L512.247 189.558L512.053 190.561L512.86 190.7L513.013 191.466L513.708 191.326L513.861 188.806L515.211 190.157L515.294 191.577L516.602 192.941L518.105 197.007L518.828 197.034L518.564 199.22L519.204 200.752L519.913 200.793L519.593 201.893L521.068 204.121L520.011 206.488L520.637 206.279L520.331 207.281L520.776 207.281L521.527 209.425L521.958 217.792L522.779 220.368L522.32 221.635L522.779 222.54L522.264 223.25L523.016 223.89L522.529 225.603L523.363 226.856L523.489 229.515L523.322 235.78L522.195 239.831L522.654 240.04L522.71 243.242L521.819 248.17L522.181 248.839L524.56 247.683L524.101 250.899L525.158 252.097L524.49 252.932L524.296 256.691L523.67 257.178L524.922 257.707L525.047 267.383L525.52 266.214L526.188 266.214L526.243 267.606L527.551 268.636L530.028 264.32L529.123 268.511L527.676 271.295L527.857 271.866L528.33 271.643L528.01 274.358L528.928 278.145L527.523 279.412L527.37 278.228L526.661 278.187L525.896 281.625L526.438 281.89L526.188 283.394L527.635 283.171L528.261 282.154L528.887 282.67L528.664 283.282L529.332 282.948L528.581 286.206L529.916 287.264L529.972 288.545L528.678 291.371L526.174 292.568L525.283 294.127L523.809 294.907L524.17 296.633L523.656 297.817L519.44 301.283L519.134 302.704L519.649 304.472L520.804 304.597L520.567 305.474L518.675 306.393L518.8 308.022L517.339 308.342L515.002 310.932L514.098 310.194L513.625 311.363L509.479 313.758L498.516 314.927L497.097 315.957L495.636 315.498L494.314 316.459L491.907 316.695L487.859 315.735L483.226 315.916L476.228 312.393L470.482 310.959L468.479 308.732L465.209 307.604L461.397 304.263L460.215 301.799L458.198 299.474L456.57 296.341L455.485 290.884L452.73 284.173L449.085 280.164L441.85 267.968L441.071 265.601L441.906 264.042L440.779 262.858L440.946 256.983L440.32 255.688L438.957 254.714L437.009 254.881L435.353 253.753L435.701 251.707L437.259 250.12L434.797 245.623L433.781 244.941L433.642 244.244L434.435 243.2L433.698 243.186L433.809 242.128L434.616 241.711L433.795 238.884L434.533 237.45L433.086 238.87L432.877 238.16L431.611 240.123L430.136 239.678L429.58 233.719L429.566 229.724L430.581 224.753L431.569 223.737L434.115 224.642L431.792 222.957L431.555 220.549L430.025 219.686L429.621 218.642L429.816 216.915L428.3 216.79L427.354 215.259L426.06 215.718L425.086 213.073L425.559 216.358L426.7 216.776L427.145 215.941L427.743 217.347L427.855 218.85L426.978 218.335L426.797 219.547L427.646 220.34L428.077 221.941L425.726 225.018L423.347 224.559L424.641 225.853L424.696 229.111L424.126 229.543L424.237 231.325L422.971 230.587L422.943 231.144L424.613 236.016L426.435 238.397L426.394 239.608L425.615 240.11L425.684 238.926L424.683 237.478L422.651 238.425L421.01 235.418L420.411 236.128L418.116 233.107L417.42 232.995L414.54 235.07L412.134 233.135L412.342 236.239L411.354 234.165L410.325 235.752L409.56 235.905L405.358 231.394L407.125 227.399L406.332 225.352L408.767 222.554L406.624 220.131L407.209 219.741L403.981 217.263L400.294 213.017L398.402 212.126L393.964 208.465L390.82 204.845L386.201 201.977L388.928 192.705L391.919 188.765L405.692 184.978L407.515 185.27L408.168 184.644L415.417 183.6L420.286 180.258L420.022 173.701L423.945 162.814L420.37 152.692L427.813 141.067L435.715 138.589L440.32 135.596L437.482 132.199L437.565 130.974L446.622 131.74L446.581 133.953L448.473 134.092L451.687 133.327L453.94 132.102L457.391 128.76L459.965 129.888L460.09 130.849L465.808 130.612L467.213 132.324L469.856 132.157L473.39 130.32L475.686 126.435L476.506 127.173L476.799 130.278L476.27 134.009L479.164 136.96L481.682 136.947L484.423 133.925L484.534 132.812L485.494 132.185L486.412 130.18L486.621 131.781L487.887 132.157L487.65 132.923L488.443 133.382L489.89 138.367L488.68 139.578L484.423 140.413L485.522 140.705L487.553 140.009L488.443 140.399L489.807 139.508L491.768 142.223L492.033 143.741L492.561 143.267L492.631 140.859L496.067 138.339L497.055 138.269L497.375 139.48L497.208 143.211L497.862 142.613L498.265 143.239L499.392 140.775L499.392 139.188L500.352 139.035L500.478 137.127L501.771 136.195L502.439 137.002L501.785 137.378Z" fill="#EF6868" stroke="white" stroke-width="0.343187"/>
<path d="M214.229 384.316L214.897 385.791L216.956 386.153L218.556 384.608L219.419 382.742L220.949 382.38L221.213 381.364L222.076 381.113L222.577 381.197L223.328 384.343L226.027 385.012L226.806 386.599L227.599 386.947L230.034 385.346L233.401 385.652L236.893 384.023L237.95 385.137L238.284 387.142L240.107 387.935L243.251 387.211L244.308 386.181L245.588 386.376L247.744 383.132L249.011 384.677L248.76 386.849L249.219 387.42L249.887 387.782L252.391 386.251L253.045 386.627L254.033 392.237L252.28 394.882L253.49 399.741L254.784 400.312L256.509 399.811L257.372 398.14L258.819 397.249L261.754 397.569L264.175 397.012L263.799 398.586L264.453 402.219L266.707 401.997L267.278 403.236L269.253 404.433L267.695 410.002L268.446 411.032L268.585 412.786L269.058 413.733L270.394 413.371L272.3 414.749L273.705 418.996L275.333 420.457L276.362 423.492L275.319 423.367L275.375 424.175L277.114 427.418L273.997 429.785L275.458 430.133L274.22 431.762L277.434 431.191L278.282 432.068L279.02 434.867L279.854 435.117L279.618 436.774L281.468 440.965L281.301 442.496L280.453 443.54L280.634 444.696L279.882 445.615L279.924 446.603L281.079 448.093L279.771 448.037L278.867 446.52L277.573 446.561L277.364 445.712L275.792 445.838L275.263 444.584L273.802 445.545L270.811 441.188L267.194 439.99L266.332 440.074L265.872 441.396L262.812 441.73L261.587 440.895L260.697 440.979L260.502 439.28L259.793 439.071L259.32 437.484L257.664 437.498L256.593 438.459L256.287 439.628L254.979 439.656L254.13 436.329L253.184 435.827L253.407 434.742L252.558 433.892L252.489 432.096L251.125 431.094L251.501 430.523L248.12 430.676L246.576 428.546L242.722 429.117L242.986 431.999L241.094 433.391L239.161 433.071L237.894 433.781L237.394 435.201L236.072 435.159L235.571 433.962L233.832 433.14L233.735 434.045L232.51 434.491L232.023 435.591L230.938 435.006L229.964 435.452L229.227 436.134L229.464 437.456L228.225 438.111L228.434 435.814L226.319 435.424L226.264 433.976L225.248 434.073L224.998 432.987L224.302 432.709L220.546 433.656L219.502 432.528L218.041 432.82L217.165 431.888L216.581 432.333L215.468 430.941L213.868 432.291L213.116 431.15L212.296 431.386L210.89 430.593L210.348 431.275L209.764 430.857L209.346 431.748L208.762 431.498L209.346 430.105L208.47 429.535L207.524 429.785L207.273 428.95L205.367 429.298L205.298 430.231L204.435 429.73L202.585 430.467L199.691 426.458L198.383 426.514L197.117 423.103L196.895 422.379L194.989 421.836L194.655 420.165L195.267 418.745L200.331 416.545L199.204 410.378L201.583 409.278L201.583 408.554L205.965 408.289L205.033 407.301L204.727 405.408L207.134 404.336L206.717 402.971L208.623 402.679L209.875 401.565L207.273 398.878L206.355 396.177L205.312 395.133L206.216 394.005L206.091 391.346L204.866 389.035L206.494 387.991L206.842 386.557L211.308 387.239L214.229 384.316Z" fill="#EF6868" stroke="white" stroke-width="0.343187"/>
<path d="M655.24 373.22L653.028 372.092L651.72 370.533L650.44 370.282L649.383 369.001L648.673 369.516L646.377 368.751L649.883 368.444L652.29 368.987L656.311 373.456L655.24 373.22ZM752.502 422.156L754.185 426.597L754.435 428.853L754.185 429.994L753.587 430.537L753.197 430.231L753.1 431.498L751.347 433.864L750.929 432.723L753.364 428.783L752.835 425.553L751.903 424.119L751.806 421.46L753.142 419.956L752.502 422.156ZM663.058 330.479L663.782 334.85L663.253 334.321L662.961 335.226L663.921 335.296L663.977 337.997L663.031 341.254L660.763 344.025L656.116 345.528L656.909 344.262L662.571 341.575L663.211 340.266L661.834 341.616L658.759 341.408L658.12 342.299L654.711 341.449L654.961 341.867L653.834 341.964L653.542 342.535L654.029 342.883L651.65 342.981L647.852 344.331L643.317 342.967L643.191 342.229L642.774 342.869L637.39 340.656L637.682 340.252L634.774 338.929L635.261 337.718L633.87 338.637L633.035 336.215L633.508 337.133L633.717 330.799L634.427 331.286L634.399 330.061L633.814 330.367L633.745 329.88L632.27 331.913L631.853 335.421L631.589 334.377L631.616 332.511L632.688 330.855L639.95 323.504L644.235 320.469L649.188 318.213L654.6 317.921L657.34 318.547L661.653 321.582L662.655 324.423L663.058 330.479ZM563.334 366.982L562.972 367.289L566.993 369.809L566.743 370.839L567.814 370.296L569.01 371.382L574.061 372.899L575.243 375.948L575.827 374.89L579.834 374.166L583.285 370.964L583.841 368.792L586.164 368.667L588.502 366.05L592.717 364.922L595.194 360.662L598.56 360.55L598.95 362.305L598.505 362.054L598.018 362.82L601.371 362.667L602.692 363.237L603.249 365.214L606.852 365.785L606.963 366.314L606.282 366.356L608.355 368.013L608.939 370.491L607.993 370.157L607.729 370.978L608.661 371.605L608.216 370.881L609.343 370.728L609.134 366.982L607.576 366.259L609.829 364.95L611.415 363.056L611.861 359.186L612.292 363.544L613.767 365.409L615.812 366.481L622.573 367.929L631.199 368.737L630.003 369.488L626.483 368.834L626.51 369.837L627.582 370.185L627.985 369.697L628.556 370.296L629.182 369.53L629.947 369.934L631.352 369.475L631.672 368.765L645.807 368.987L646.224 370.797L651.108 373.568L652.582 373.512L653.208 374.222L653.848 373.776L655.017 375.28L656.005 375.127L655.226 374.069L656.909 373.721L660.499 376.06L665.549 377.689L665.799 378.357L663.351 378.747L662.196 377.758L661.264 378.886L663.17 378.788L663.49 380.222L662.572 381.03L663.545 381.169L663.768 381.754L663.309 381.601L662.21 382.923L660.471 382.547L659.427 383.007L659.497 385.889L660.109 385.61L661.166 386.418L664.881 386.32L666.383 386.822L668.512 385.861L667.928 382.854L668.79 381.294L668.498 380.362L670.14 379.471L667.524 379.582L666.94 377.911L685.652 380.626L692.915 383.633L699.495 388.409L700.413 390.219L699.356 390.024L698.841 388.812L697.283 388.59L691.621 385.151L688.657 382.742L688.657 383.438L687.461 383.299L687.823 385.75L688.351 385.582L688.296 384.218L689.589 385.736L690.605 388.701L689.172 389.355L688.268 388.534L686.278 389.634L685.207 391.012L683.023 391.054L681.228 392.098L681.659 393.393L681.033 396.386L678.293 399.853L676.067 399.519L675.246 400.563L674.842 399.602L675.218 397.639L674.369 397.18L674.467 396.414L674.091 396.873L674.481 397.848L673.187 399.087L673.618 397.681L672.825 395.968L670.349 395.217L667.427 395.857L665.994 397.263L665.507 396.692L663.726 399.115L662.864 398.669L663.003 399.17L664.575 399.268L665.368 398.252L666.87 397.834L668.943 398.934L669.862 400.326L671.935 401.398L672.074 402.456L672.644 402.693L672.825 403.626L671.99 403.793L671.879 404.739L674.077 405.101L672.435 405.575L674.369 405.227L673.868 405.978L675.371 405.811L673.813 406.981L672.282 409.292L667.566 410.559L667.705 411.199L672.422 410.378L676.498 407.496L677.555 408.22L680.95 408.025L681.284 408.832L679.392 413.148L679.489 414.36L680.644 415.487L679.225 416.267L681.534 415.571L682.536 414.318L684.261 414.067L685.235 411.144L685.388 411.826L685.513 411.116L689.687 409.64L690.382 410.336L690.702 409.849L693.151 409.849L693.318 410.378L693.527 409.946L696.393 409.974L699.286 412.814L704.782 413.218L706.062 414.165L706.59 417.729L708.274 419.441L710.875 420.43L711.766 422.49L711.488 424.634L712.42 427.46L715.397 429.799L718.527 429.757L719.821 428.546L724.357 427.6L723.703 426.36L720.837 425.497L719.195 423.743L728.767 428.393L728.85 428.95L727.723 429.159L726.903 430.537L728.238 430.704L729.17 430.161L729.073 428.95L729.741 428.783L743.598 433.266L746.644 436.12L747.326 437.582L746.923 437.874L746.464 436.774L744.724 436.036L742.526 436.008L743.389 437.679L743.89 443.025L742.749 446.367L740.203 447.327L738.714 445.225L737.42 444.821L736.238 445.893L734.04 446.227L733.052 448.831L729.936 451.114L729.852 452.228L731.522 454.65L732.078 457.184L735.264 458.924L736.252 458.576L737.1 459.286L739.257 458.437L742.693 451.963L746.255 451.128L746.394 453.328L750.651 456.641L754.032 457.017L759.068 455.513L760.585 455.639L761.433 456.627L760.167 457.421L761.753 459.036L760.877 461.249L761.461 461.778L761.197 461.152L762.783 459.704L762.546 455.597L761.976 455.834L762.045 455.374L764.578 453.815L765.69 451.81L766.456 451.462L767.527 448.469L767.471 447.327L766.804 447.132L765.371 448.817L764.981 446.84L768.473 442.928L770.56 434.296L771.339 433.266L771.269 431.804L772.396 430.955L772.452 429.897L774.789 428.226L777.224 428.351L777.878 429.757L780.076 431.595L778.907 432.514L779.7 434.087L780.452 434.032L781.606 430.732L782.427 430.05L783.067 431.164L785.154 427.934L788.006 427.753L789.147 430.676L790.719 430.189L790.093 432.319L791.303 433.391L790.9 434.797L791.846 436.496L794.141 439.099L796.27 443.178L803.574 451.74L804.562 453.676L803.644 454.622L804.771 453.801L808.221 461.597L812.269 473.946L812.158 476.536L811.476 476.661L812.2 476.856L812.631 483.024L811.657 485.724L809.417 485.711L807.191 486.685L805.077 489.33L803.922 489.734L801.251 489.261L799.929 492.254L798.774 492.658L798.983 494.927L800.346 494.287L800.736 495.428L800.833 500.009L802.976 501.679L803.477 503.879L802.225 505.104L802.99 507.819L801.056 508.835L799.178 513.499L797.397 514.557L793.627 514.571L790.955 513.903L790.093 512.928L789.453 510.283L787.909 509.684L786.003 507.833L782.622 507.568L779.158 511.564L777.127 510.701L775.638 511.411L767.875 509.35L765.482 512.859L760 513.36L758.748 514.836L757.649 511.731L755.576 510.603L750.554 510.645L745.337 512.58L741.58 515.866L722.59 512.511L719.265 513.443L717.957 511.634L715.3 510.979L714.562 509.49L661.083 457.17L647.741 443.039L625.634 416.657L616.201 415.654L614.977 414.652L611.972 418.105L569.066 408.665L566.937 405.477L564.878 403.779L563.932 401.885L561.498 399.811L555.251 399.463L552.496 400.242L551.662 403.528L550.674 403.486L547.655 399.853L544.483 397.458L543.091 384.343L539.349 382.826L538.57 377.786L536.052 376.798L535.412 375.934L534.285 368.82L530.32 361.706L531.043 357.362L529.263 354.355L532.087 353.255L533.102 353.631L537.429 350.749L539.321 351.78L538.598 350.443L540.198 346.252L542.549 346.433L544.079 344.568L544.97 344.818L546.11 341.087L546.041 339.152L546.931 338.512L548.211 338.651L546.653 338.15L546.792 335.811L547.474 335.24L546.667 333.235L544.677 331.662L544.817 329.824L546.5 328.195L555.543 322.71L559.953 320.942L560.649 321.22L559.633 321.958L561.192 321.429L561.442 321.819L561.442 320.65L560.941 320.427L563.849 318.937L565.073 316.376L566.673 315.888L567.438 316.682L567.591 315.61L569.01 316.362L568.259 315.081L567.647 315.025L569.261 313.521L572.739 313.772L570.944 312.617L576.217 307.702L578.29 304.848L578.735 300.727L577.886 289.269L578.206 286.22L578.958 285.441L580.85 287.306L583.048 296.857L589.768 303.442L594.484 309.052L596.96 312.979L599.492 319.967L598.866 318.283L598.046 318.464L597.531 321.958L596.64 322.905L597.1 324.729L596.167 329.309L596.696 333.068L596.334 333.625L595.333 333.18L596.098 333.611L593.955 336.145L592.453 340.349L589.976 342.661L587.375 340.141L586.401 338.164L586.206 338.86L583.034 337.273L582.255 336.159L580.224 336.047L578.109 334.516L578.457 333.89L576.634 332.845L573.295 332.4L573.059 331.801L572.294 332.094L572.948 332.525L572.53 333.444L569.956 335.212L569.762 334.544L568.315 333.987L564.864 334.238L562.36 335.296L559.828 337.495L558.493 337.273L559.258 337.259L559.202 338.345L559.717 338.386L560.051 342.285L562.026 349.023L559.508 351.264L559.606 353.172L557.352 357.85L558.284 360.982L558.047 361.525L556.92 361.483L563.654 365.354L564.197 365.98L564.016 366.996L563.334 366.982ZM788.02 392.07L786.893 393.114L787.408 394.465L787.366 398.516L785.585 405.06L785.85 408.832L785.126 409.501L785.752 412.299L786.67 412.828L785.919 413.496L785.641 415.083L785.251 420.095L785.905 421.585L784.653 423.005L783.248 426.36L781.189 426.862L780.09 428.379L779.631 426.472L779.088 427.794L778.1 426.889L777.405 427.112L777.238 426.305L776.89 427.07L776.361 425.845L776.027 426.708L775.457 423.353L774.859 424.62L774.33 423.59L773.537 424.94L773.148 424.077L773.69 423.061L772.382 422.142L770.991 419.33L772.174 418.787L772.215 417.965L773.342 417.033L773.175 417.812L774.33 418.606L775.012 414.805L774.692 412.536L774.233 412.745L773.648 411.297L772.842 411.018L773.036 409.849L772.215 408.972L771.77 406.521L771.089 411.074L769.976 409.905L770.977 407.371L770.657 404.071L771.562 399.101L773.106 398.447L772.494 397.082L773.899 397.82L773.732 396.539L774.414 396.776L774.775 396.191L773.815 396.149L774.441 395.05L773.829 395.133L773.704 394.507L775.248 394.799L775.137 393.184L774.539 393.309L775.165 392.794L774.622 392.196L775.276 391.764L776.82 394.089L777.085 396.72L777.878 397.263L778.713 396.456L778.184 391.36L778.699 390.372L779.45 392.321L780.215 391.555L782.427 391.987L784.138 390.553L785.571 391.792L788.02 392.07Z" fill="#EF6868" stroke="white" stroke-width="0.343187"/>
<path d="M202.988 351.849L202.292 352.1L202.042 353.381L204.81 353.394L206.077 355.079L206.758 357.014L205.826 360.592L206.856 361.427L210.362 367.609L211.6 368.625L211.628 373.776L210.181 375.67L212.003 379.164L211.169 381.141L211.516 382.547L212.546 383.828L214.229 384.315L211.308 387.239L206.842 386.557L206.494 387.991L204.866 389.035L206.09 391.346L206.216 394.005L205.311 395.133L206.355 396.177L207.273 398.878L209.875 401.565L208.623 402.679L206.717 402.971L207.134 404.335L204.727 405.408L205.033 407.301L205.965 408.289L201.583 408.554L201.583 409.278L199.204 410.378L200.331 416.545L195.267 418.745L194.654 420.165L194.988 421.836L196.894 422.379L197.117 423.103L196.63 422.838L193.5 424.634L191.705 424.62L192.415 425.469L191.162 425.441L190.912 426.945L191.775 429.618L188.769 432.041L190.355 434.63L189.799 435.911L188.783 436.008L189.048 437.609L190.759 439.322L190.815 440.352L189.924 439.712L188.978 440.547L189.062 441.856L187.615 441.828L186.474 444.278L185.584 444.696L183.608 444.278L182.787 445.684L181.674 446.158L180.172 448.942L177.333 447.271L176.819 445.865L175.956 445.42L174.579 445.155L174.523 445.823L172.561 445.754L172.325 445.044L170.975 445.169L170.683 444.515L171.337 443.359L170.586 443.025L171.56 441.048L170.92 439.712L171.504 438.264L170.405 436.691L170.405 434.964L169.556 433.864L168.249 434.171L167.79 431.623L167.191 431.804L166.259 430.927L164.005 431.957L163.978 431.094L162.531 430.286L159.623 430.022L159.609 427.864L162.364 425.72L163.491 426.152L163.24 425.093L163.811 424.745L161.96 422.225L162.266 421.112L161.362 420.012L157.926 419.079L156.785 417.882L157.661 416.531L157.522 415.752L158.482 415.153L156.061 412.369L155.06 412.842L154.35 411.993L154.197 411.143L154.809 410.948L154.42 408.972L157.675 407.217L158.468 404.865L159.873 403.904L160.583 401.44L161.765 401.092L161.112 399.713L162.739 397.11L162.572 395.606L164.618 395.036L164.061 394.144L164.395 392.697L161.891 391.583L163.351 390.26L164.242 390.455L165.327 389.592L167.261 387.907L167.163 387.392L169.403 387.239L172.255 384.998L172.144 380.877L171.449 378.872L172.645 378.677L173.521 377.521L171.782 376.032L172.005 374.445L173.494 374.709L174.259 373.387L175.177 373.136L176.415 373.54L176.499 374.124L177.139 373.874L177.667 372.315L178.182 372.635L179.059 372.036L180.923 373.345L181.326 374.417L182.286 374.319L183.051 372.969L182.356 371.688L183.817 370.087L183.594 369.335L184.944 368.709L184.791 366.69L186.39 363.307L189.507 361.748L196.254 352.935L198.063 352.1L202.988 351.849Z" fill="#EF6868" stroke="white" stroke-width="0.343187"/>
<path d="M326.238 386.919L338.578 390.386L344.338 389.077L345.562 391.778L347.44 391.263L349.179 391.945L349.499 393.936L350.125 394.479L349.722 396.052L350.153 397.375L354.633 400.772L351.976 403.013L350.223 409.306L349.11 409.974L349.054 411.255L349.944 412.647L349.193 414.485L346.299 416.267L346.967 418.523L349.054 418.161L348.72 419.163L346.494 421.001L347.69 423.395L346.828 426.347L348.553 427.85L348.831 429.716L350.57 432.375L352.003 432.027L354.396 435.257L356.9 435.118L358.18 436.482L357.93 438.71L358.82 440.52L361.408 441.355L362.688 443.137L364.845 442.316L365.512 442.789L366.431 445.351L368.142 445.949L368.67 450.655L370.479 452.715L373.039 453.384L375.112 453.036L376.058 451.17L379.661 451.769L379.105 453.077L379.745 455.054L381.999 453.941L382.402 457.519L383.974 457.421L383.418 459.147L384.447 462.879L386.339 462.99L386.896 463.602L388.76 463.073L389.943 463.756L390.36 466.067L389.887 469.659L393.003 469.102L394.144 471.998L395.869 472.972L397.108 472.095L399.82 471.886L401.226 472.68L402.575 471.691L406.317 473.264L407.625 474.712L407.417 475.562L406.791 475.687L406.624 477.385L415.333 488.078L422.164 482.829L426.657 488.746L423.277 490.765L424.445 494.997L427.715 497.851L430.456 497.976L430.539 500.928L432 502.111L432.209 502.96L430.414 503.67L430.497 505.035L432.974 507.708L430.219 509.072L427.492 513.137L423.805 513.235L418.407 516.882L417.475 516.813L416.794 515.657L412.968 512.915L411.437 516.2L412.995 520.85L414.456 521.7L418.393 521.713L414.22 525.11L409.684 527.31L410.992 530.429L410.575 531.459L408.363 533.366L405.26 530.011L403.98 530.15L402.979 529.482L403.382 528.688L401.114 526.753L398.791 528.159L398.638 529.176L396.398 530.749L393.991 528.842L392.92 529.134L392.266 528.201L388.245 529.802L386.771 528.048L386.659 526.739L385.838 527.032L382.889 522.994L381.72 523.245L379.633 521.045L377.616 521.7L373.498 516.047L371.119 514.585L371.634 513.959L370.743 512.511L371.369 511.439L369.283 510.381L368.74 508.668L367.669 507.791L368.768 506.636L366.027 505.703L365.596 506.413L364.413 506.037L366.403 503.322L364.149 502.403L363.189 503.475L362.605 503.225L362.799 502.362L362.285 502.32L362.173 500.51L360.671 500.287L360.253 500.789L358.403 499.772L358.347 498.993L357.29 499.967L356.581 499.619L357.346 496.876L356.873 496.375L357.888 493.939L355.022 492.101L353.728 492.171L353.937 490.43L355.426 488.356L354.396 486.574L350.612 488.328L351.057 490.639L348.456 492.909L347.732 492.519L347.774 491.837L346.466 492.199L345.311 490.597L343.183 489.498L339.454 488.746L338.063 489.052L338.773 487.535L337.993 487.34L337.479 487.883L335.921 487.855L336.115 488.996L335.086 490.082L334.905 489.428L333.082 490.027L332.888 492.366L330.662 493.062L329.785 492.463L327.796 492.477L327.211 493.563L327.044 492.978L326.084 492.964L324.485 491.864L325.124 491.224L324.818 490.5L323.024 488.732L322.203 488.634L322.161 487.785L320.853 487.952L320.422 486.296L319.587 486.435L318.739 483.219L319.1 482.244L319.852 482.69L320.325 481.994L319.796 477.427L320.561 475.826L319.156 474.977L319.921 472.875L318.266 471.886L316.123 466.568L315.01 466.596L314.871 465.092L313.73 465.204L312.492 467.389L310.836 467.877L310.447 468.628L309.445 468.545L309.056 467.236L307.539 466.22L307.984 465.886L307.65 465.301L306.816 464.549L306.051 465.203L304.534 464.41L300.847 459.746L299.776 459.927L299.86 459.175L299.178 459.941L299.15 461.25L298.12 460.665L298.065 461.277L296.952 461.695L296.785 460.832L297.272 460.595L296.075 458.507L292.792 460.985L292.75 460.192L291.985 460.233L293.39 448.135L292.458 448.316L291.957 446.868L290.037 446.506L289.453 448.539L287.102 447.105L285.307 448.288L284.723 447.787L281.759 449.026L281.078 448.093L279.923 446.604L279.881 445.615L280.633 444.696L280.452 443.541L281.3 442.497L281.467 440.965L279.617 436.775L279.853 435.118L279.019 434.867L278.281 432.069L277.433 431.192L274.219 431.762L275.457 430.134L273.996 429.786L277.113 427.419L275.374 424.175L275.318 423.367L276.361 423.493L275.332 420.458L275.666 419.539L276.208 419.748L276.974 418.898L280.368 418.509L280.257 420.263L281.537 419.929L282.121 421.043L284.152 421.015L285.251 422.142L287.004 421.029L289.077 420.681L289.203 418.912L292.333 418.592L294.169 416.643L294.475 418.648L296.034 416.727L294.531 414.416L294.907 413.511L298.496 410.114L300.013 409.96L297.912 405.324L299.053 405.324L299.873 404.559L299.706 402.916L302.183 400.828L304.019 400.521L310.029 396.567L312.089 393.588L313.285 390.525L315.887 390.205L316.708 390.609L317.292 392.307L318.669 392.182L320.2 391.514L320.046 390.163L320.7 389.425L323.191 389.662L325.194 388.715L326.238 386.919Z" fill="#EF6868" stroke="white" stroke-width="0.343187"/>
</g>
<defs>
<clipPath id="clip0_668_3731">
<rect width="1157" height="719" fill="white" transform="translate(0 0.969971)"/>
</clipPath>
</defs>
</svg>
