<svg width="182" height="38" viewBox="0 0 182 38" fill="none" xmlns="http://www.w3.org/2000/svg">
<g clip-path="url(#clip0_526_3450)">
<path d="M118.5 31.3699H125.8L120.6 22.3699C123.5 21.1699 125.1 18.7699 125.1 15.7699C125.1 11.1699 122.1 8.16992 116.1 8.16992H104.6V31.3699H110.9V23.2699H114.1L118.5 31.3699ZM118.7 15.7699C118.7 17.3699 117.6 18.5699 115.2 18.5699H110.8V12.9699H115.2C117.6 12.9699 118.7 14.1699 118.7 15.7699ZM93.3 14.6699V22.0699C93.3 25.4699 91.7 26.5699 89.5 26.5699C87.4 26.5699 85.7 25.3699 85.7 22.0699V14.5699H79.3V22.3699C79.3 28.4699 82.7 31.8699 89.6 31.8699C96.5 31.8699 99.8 28.4699 99.8 22.4699V14.6699H93.3ZM85.7 12.5699V8.16992H79.3V12.5699H85.7ZM93.3 12.5699H99.7V8.16992H93.3V12.5699ZM52.7 23.5699L49.4 8.16992H43L48.9 31.3699H55.7L59.7 16.1699L63.7 31.3699H70.5L76.4 8.16992H70L66.7 23.5699L62.7 8.16992H56.7L52.7 23.5699ZM163.6 16.4699H155.8V8.16992H149.4V31.3699H155.8V21.6699H163.6V31.3699H170.1V8.16992H163.6V16.4699ZM133.4 13.2699V31.4699H139.8V13.2699H145.8V8.16992H127.4V13.2699H133.4Z" fill="black"/>
<path d="M33.3 15.27H0V0.969971H13.9V6.56997H19.5V0.969971H33.4V15.27H33.3ZM19.4 31.87V37.47C27.4 35.97 33.3 29.07 33.3 21.27V20.97H0V21.27C0 28.97 5.9 35.87 13.9 37.37V31.77H19.4V31.87Z" fill="#CC0000"/>
</g>
<defs>
<clipPath id="clip0_526_3450">
<rect width="182" height="37" fill="white" transform="translate(0 0.969971)"/>
</clipPath>
</defs>
</svg>
